<svg xmlns="http://www.w3.org/2000/svg" xmlns:xlink="http://www.w3.org/1999/xlink" width="500" zoomAndPan="magnify" viewBox="0 0 375 374.999991" height="500" preserveAspectRatio="xMidYMid meet" version="1.0"><defs><clipPath id="b28bc8193b"><path d="M 12.578125 6.234375 L 356 6.234375 L 356 361.734375 L 12.578125 361.734375 Z M 12.578125 6.234375 " clip-rule="nonzero"/></clipPath></defs><g clip-path="url(#b28bc8193b)"><path fill="#0c2c57" d="M 38.457031 331.859375 C 22.414062 325.054688 12.558594 314.824219 12.558594 302.304688 C 12.558594 276.707031 23.25 253.605469 40.414062 237.222656 L 40.414062 27.226562 C 40.414062 26.113281 40.503906 25.007812 40.675781 23.921875 C 40.875 22.691406 41.179688 21.484375 41.589844 20.316406 L 41.589844 20.3125 C 42.621094 17.375 44.300781 14.675781 46.542969 12.433594 C 48.785156 10.1875 51.488281 8.507812 54.425781 7.480469 L 54.425781 7.476562 C 55.59375 7.070312 56.800781 6.761719 58.035156 6.566406 C 59.121094 6.390625 60.222656 6.300781 61.339844 6.300781 C 61.339844 6.300781 61.351562 6.300781 61.355469 6.300781 L 334.800781 6.300781 C 334.804688 6.300781 334.820312 6.300781 334.820312 6.300781 C 335.933594 6.300781 337.039062 6.390625 338.125 6.566406 C 339.355469 6.761719 340.5625 7.070312 341.730469 7.476562 L 341.734375 7.480469 C 344.671875 8.507812 347.371094 10.1875 349.613281 12.433594 C 351.859375 14.675781 353.539062 17.375 354.570312 20.3125 L 354.570312 20.316406 C 354.976562 21.484375 355.285156 22.691406 355.480469 23.921875 C 355.65625 25.007812 355.746094 26.113281 355.746094 27.226562 C 355.746094 27.226562 355.746094 27.242188 355.746094 27.246094 L 355.746094 272.636719 C 355.746094 284.203125 346.367188 293.582031 334.800781 293.582031 L 192.046875 293.582031 C 192.324219 296.453125 192.464844 299.363281 192.464844 302.304688 C 192.464844 314.824219 182.609375 325.054688 166.566406 331.859375 L 166.566406 341.710938 C 166.566406 346.113281 162.996094 349.679688 158.597656 349.679688 L 46.425781 349.679688 C 42.023438 349.679688 38.457031 346.113281 38.457031 341.710938 Z M 50.488281 228.910156 C 65.179688 218.480469 83.132812 212.34375 102.519531 212.34375 C 145.746094 212.34375 181.851562 242.851562 190.496094 283.503906 L 334.800781 283.503906 C 340.804688 283.503906 345.667969 278.640625 345.667969 272.636719 L 345.667969 73.492188 L 50.488281 73.492188 Z M 326.300781 189.941406 C 317.730469 189.941406 313.425781 200.328125 319.488281 206.386719 C 323.152344 210.050781 323.152344 216.011719 319.488281 219.675781 L 310.117188 229.046875 C 306.453125 232.710938 300.492188 232.710938 296.832031 229.046875 C 290.769531 222.984375 280.382812 227.289062 280.382812 235.859375 C 280.382812 241.058594 276.179688 245.25 270.996094 245.25 L 257.738281 245.25 C 252.554688 245.25 248.347656 241.058594 248.347656 235.859375 C 248.347656 227.277344 237.96875 222.980469 231.902344 229.046875 C 228.234375 232.710938 222.289062 232.710938 218.625 229.046875 L 209.246094 219.675781 C 205.582031 216.011719 205.582031 210.050781 209.246094 206.386719 C 215.304688 200.328125 211.007812 189.941406 202.433594 189.941406 C 197.246094 189.941406 193.042969 185.738281 193.042969 180.550781 L 193.042969 167.296875 C 193.042969 162.109375 197.246094 157.90625 202.433594 157.90625 C 211.007812 157.90625 215.304688 147.519531 209.246094 141.460938 C 205.578125 137.792969 205.578125 131.847656 209.246094 128.179688 L 218.625 118.800781 C 222.289062 115.136719 228.234375 115.136719 231.902344 118.800781 C 237.964844 124.863281 248.347656 120.566406 248.347656 111.988281 C 248.347656 106.804688 252.554688 102.597656 257.738281 102.597656 L 270.996094 102.597656 C 276.179688 102.597656 280.382812 106.804688 280.382812 111.988281 C 280.382812 120.566406 290.769531 124.863281 296.832031 118.800781 C 300.492188 115.136719 306.453125 115.136719 310.117188 118.800781 L 319.488281 128.179688 C 323.15625 131.847656 323.15625 137.792969 319.488281 141.460938 C 313.425781 147.519531 317.730469 157.90625 326.300781 157.90625 C 331.503906 157.90625 335.691406 162.109375 335.691406 167.296875 L 335.691406 180.550781 C 335.691406 185.738281 331.503906 189.941406 326.300781 189.941406 Z M 203.117188 167.96875 L 203.117188 179.878906 C 219.976562 180.414062 228.382812 200.726562 216.84375 213.023438 L 225.269531 221.445312 C 237.578125 209.898438 257.875 218.304688 258.414062 235.171875 L 270.320312 235.171875 C 270.855469 218.324219 291.171875 209.90625 303.464844 221.449219 L 311.890625 213.023438 C 300.351562 200.726562 308.765625 180.414062 325.617188 179.878906 L 325.617188 167.96875 C 308.769531 167.433594 300.351562 147.125 311.886719 134.828125 L 303.464844 126.398438 C 291.171875 137.941406 270.855469 129.535156 270.320312 112.675781 L 258.414062 112.675781 C 257.875 129.53125 237.566406 137.9375 225.269531 126.402344 L 216.847656 134.828125 C 228.382812 147.125 219.976562 167.433594 203.117188 167.96875 Z M 264.371094 210.816406 C 244.050781 210.816406 227.484375 194.238281 227.484375 173.929688 C 227.484375 153.605469 244.050781 137.039062 264.371094 137.039062 C 284.683594 137.039062 301.257812 153.605469 301.257812 173.929688 C 301.257812 194.238281 284.683594 210.816406 264.371094 210.816406 Z M 264.371094 200.738281 C 279.132812 200.738281 291.183594 188.691406 291.183594 173.929688 C 291.183594 159.15625 279.132812 147.117188 264.371094 147.117188 C 249.601562 147.117188 237.558594 159.15625 237.558594 173.929688 C 237.558594 188.691406 249.601562 200.738281 264.371094 200.738281 Z M 58.226562 161.378906 C 58.226562 136.925781 78.050781 117.101562 102.519531 117.101562 C 126.972656 117.101562 146.796875 136.925781 146.796875 161.378906 C 146.796875 185.847656 126.96875 205.671875 102.519531 205.671875 C 78.050781 205.671875 58.226562 185.847656 58.226562 161.378906 Z M 68.300781 161.378906 C 68.300781 180.28125 83.617188 195.59375 102.519531 195.59375 C 121.40625 195.59375 136.722656 180.28125 136.722656 161.378906 C 136.722656 142.488281 121.40625 127.175781 102.519531 127.175781 C 83.617188 127.175781 68.300781 142.488281 68.300781 161.378906 Z M 166.566406 320.796875 C 170.640625 318.777344 174.121094 316.484375 176.820312 313.886719 C 180.289062 310.550781 182.386719 306.730469 182.386719 302.304688 C 182.386719 297.894531 182.03125 293.570312 181.34375 289.351562 C 175.160156 251.394531 142.222656 222.421875 102.519531 222.421875 C 81.855469 222.421875 63.023438 230.269531 48.839844 243.148438 C 32.742188 257.761719 22.632812 278.855469 22.632812 302.304688 C 22.632812 306.730469 24.734375 310.550781 28.199219 313.886719 C 30.902344 316.484375 34.382812 318.777344 38.457031 320.796875 L 38.457031 269.078125 C 38.457031 264.675781 42.023438 261.109375 46.425781 261.109375 L 158.597656 261.109375 C 162.996094 261.109375 166.566406 264.675781 166.566406 269.078125 Z M 50.488281 27.246094 L 50.488281 63.417969 C 89.785156 63.417969 345.667969 63.417969 345.667969 63.417969 L 345.667969 27.230469 C 345.667969 26.652344 345.621094 26.078125 345.53125 25.515625 C 345.429688 24.875 345.273438 24.25 345.058594 23.644531 C 343.96875 20.539062 341.507812 18.078125 338.402344 16.988281 C 337.796875 16.777344 337.171875 16.617188 336.53125 16.515625 C 335.96875 16.425781 335.394531 16.378906 334.816406 16.378906 L 61.339844 16.378906 C 60.761719 16.378906 60.1875 16.425781 59.625 16.515625 C 58.988281 16.617188 58.363281 16.777344 57.757812 16.988281 C 54.652344 18.078125 52.1875 20.539062 51.097656 23.644531 C 50.886719 24.25 50.726562 24.875 50.625 25.515625 C 50.535156 26.078125 50.488281 26.652344 50.488281 27.230469 Z M 293.324219 31.316406 C 298.0625 31.316406 301.910156 35.164062 301.910156 39.902344 C 301.910156 44.640625 298.0625 48.488281 293.324219 48.488281 C 288.582031 48.488281 284.734375 44.640625 284.734375 39.902344 C 284.734375 35.164062 288.582031 31.316406 293.324219 31.316406 Z M 318.507812 31.316406 C 323.25 31.316406 327.097656 35.164062 327.097656 39.902344 C 327.097656 44.640625 323.25 48.488281 318.507812 48.488281 C 313.769531 48.488281 309.921875 44.640625 309.921875 39.902344 C 309.921875 35.164062 313.769531 31.316406 318.507812 31.316406 Z M 268.136719 31.316406 C 272.875 31.316406 276.722656 35.164062 276.722656 39.902344 C 276.722656 44.640625 272.875 48.488281 268.136719 48.488281 C 263.394531 48.488281 259.546875 44.640625 259.546875 39.902344 C 259.546875 35.164062 263.394531 31.316406 268.136719 31.316406 Z M 48.53125 271.183594 L 48.53125 339.601562 L 156.488281 339.601562 L 156.488281 271.183594 Z M 102.511719 290.289062 C 110.847656 290.289062 117.613281 297.058594 117.613281 305.394531 C 117.613281 313.730469 110.847656 320.496094 102.511719 320.496094 C 94.175781 320.496094 87.40625 313.730469 87.40625 305.394531 C 87.40625 297.058594 94.175781 290.289062 102.511719 290.289062 Z M 102.511719 300.367188 C 99.734375 300.367188 97.484375 302.617188 97.484375 305.394531 C 97.484375 308.167969 99.734375 310.421875 102.511719 310.421875 C 105.285156 310.421875 107.539062 308.167969 107.539062 305.394531 C 107.539062 302.617188 105.285156 300.367188 102.511719 300.367188 Z M 43.496094 361.828125 C 40.714844 361.828125 38.457031 359.570312 38.457031 356.789062 C 38.457031 354.011719 40.714844 351.753906 43.496094 351.753906 L 161.527344 351.753906 C 164.308594 351.753906 166.566406 354.011719 166.566406 356.789062 C 166.566406 359.570312 164.308594 361.828125 161.527344 361.828125 Z M 43.496094 361.828125 " fill-opacity="1" fill-rule="evenodd"/></g></svg>