<svg xmlns="http://www.w3.org/2000/svg" xmlns:xlink="http://www.w3.org/1999/xlink" width="500" zoomAndPan="magnify" viewBox="0 0 375 374.999991" height="500" preserveAspectRatio="xMidYMid meet" version="1.0"><defs><clipPath id="e7592ba089"><path d="M 7.71875 23.4375 L 354.21875 23.4375 L 354.21875 351.9375 L 7.71875 351.9375 Z M 7.71875 23.4375 " clip-rule="nonzero"/></clipPath></defs><g clip-path="url(#e7592ba089)"><path fill="#0c2c57" d="M 327.320312 272.648438 C 310.796875 256.125 287.988281 245.863281 262.910156 245.863281 L 231.371094 245.863281 C 231.378906 245.449219 231.40625 245.035156 231.40625 244.617188 L 231.40625 229.480469 C 232.773438 228.292969 234.097656 227.054688 235.378906 225.773438 C 239.277344 221.878906 242.765625 217.554688 245.773438 212.90625 C 261.558594 211.097656 273.890625 205.589844 277.042969 190.929688 C 282.054688 189.941406 286.542969 187.464844 290.023438 183.984375 C 294.601562 179.402344 297.453125 173.070312 297.453125 166.117188 L 297.453125 138.085938 C 297.453125 131.125 294.601562 124.804688 290.023438 120.222656 L 289.667969 119.894531 C 286.644531 116.984375 282.914062 114.828125 278.773438 113.683594 C 278.78125 113.582031 278.792969 113.484375 278.792969 113.382812 C 278.792969 88.605469 268.011719 66.109375 250.640625 49.8125 C 233.34375 33.59375 209.539062 23.53125 183.378906 23.53125 L 178.453125 23.53125 C 152.292969 23.53125 128.488281 33.59375 111.203125 49.8125 C 93.832031 66.109375 83.050781 88.605469 83.050781 113.382812 C 83.050781 113.484375 83.058594 113.582031 83.066406 113.683594 C 78.78125 114.863281 74.925781 117.140625 71.84375 120.214844 L 71.820312 120.238281 C 67.238281 124.828125 64.390625 131.152344 64.390625 138.085938 L 64.390625 166.117188 C 64.390625 172.890625 67.097656 179.066406 71.488281 183.628906 L 71.820312 183.984375 C 76.398438 188.5625 82.722656 191.414062 89.683594 191.414062 C 95.539062 191.414062 100.933594 189.394531 105.226562 186.035156 C 108.222656 201.371094 115.792969 215.125 126.453125 225.78125 C 128.453125 227.785156 130.554688 229.664062 132.765625 231.4375 L 132.765625 244.636719 C 132.765625 245.050781 132.78125 245.464844 132.800781 245.882812 L 98.921875 245.882812 C 73.835938 245.882812 51.035156 256.144531 34.511719 272.664062 C 17.980469 289.171875 7.71875 311.980469 7.71875 337.058594 L 7.71875 345.875 C 7.71875 348.957031 10.222656 351.460938 13.304688 351.460938 L 348.519531 351.460938 C 351.601562 351.460938 354.101562 348.957031 354.101562 345.875 L 354.101562 337.058594 C 354.101562 311.980469 343.839844 289.171875 327.320312 272.648438 Z M 252.378906 200.167969 C 254.214844 195.648438 255.644531 190.910156 256.597656 186.019531 C 259.167969 188.035156 262.148438 189.570312 265.378906 190.46875 C 263.253906 195.398438 258.605469 198.394531 252.378906 200.167969 Z M 282.109375 128.113281 C 284.671875 130.675781 286.265625 134.199219 286.265625 138.078125 L 286.265625 166.109375 C 286.265625 169.988281 284.671875 173.523438 282.109375 176.078125 C 279.542969 178.640625 276.011719 180.234375 272.132812 180.234375 C 268.253906 180.234375 264.71875 178.640625 262.164062 176.078125 L 262.140625 176.078125 C 259.59375 173.53125 258.007812 170 258.007812 166.109375 L 258.007812 138.078125 C 258.007812 134.183594 259.59375 130.65625 262.140625 128.113281 L 262.164062 128.085938 C 264.710938 125.539062 268.242188 123.957031 272.140625 123.957031 C 275.90625 123.957031 279.34375 125.4375 281.863281 127.84375 Z M 118.832031 57.925781 C 134.105469 43.59375 155.203125 34.699219 178.445312 34.699219 L 183.371094 34.699219 C 206.605469 34.699219 227.707031 43.59375 242.984375 57.925781 C 258.128906 72.136719 267.550781 91.707031 267.59375 113.207031 C 263.957031 113.875 260.589844 115.332031 257.660156 117.390625 C 255.929688 99.066406 247.71875 82.554688 235.363281 70.195312 C 221.394531 56.230469 202.109375 47.550781 180.902344 47.550781 C 159.695312 47.550781 140.410156 56.230469 126.441406 70.195312 C 114.085938 82.554688 105.875 99.066406 104.144531 117.390625 C 101.21875 115.332031 97.847656 113.875 94.210938 113.207031 C 94.273438 91.707031 103.6875 72.136719 118.832031 57.925781 Z M 246.335938 116.628906 C 233.171875 116.578125 220.53125 114.886719 208.433594 111.582031 C 194.578125 107.789062 181.355469 101.828125 168.78125 93.714844 C 166.625 92.332031 163.707031 92.582031 161.828125 94.476562 C 156.257812 100.054688 149.113281 104.703125 140.386719 108.417969 C 133.199219 111.476562 124.929688 113.882812 115.617188 115.667969 C 117.628906 101.109375 124.417969 88.027344 134.359375 78.085938 C 146.308594 66.136719 162.796875 58.714844 180.921875 58.714844 C 199.046875 58.714844 215.53125 66.136719 227.484375 78.085938 C 237.632812 88.242188 244.5 101.691406 246.335938 116.628906 Z M 89.683594 180.234375 C 85.804688 180.234375 82.269531 178.640625 79.714844 176.078125 L 79.457031 175.835938 C 77.050781 173.304688 75.566406 169.875 75.566406 166.109375 L 75.566406 138.078125 C 75.566406 134.183594 77.152344 130.65625 79.699219 128.113281 L 79.726562 128.085938 C 82.269531 125.539062 85.804688 123.957031 89.699219 123.957031 C 93.597656 123.957031 97.121094 125.539062 99.667969 128.085938 L 99.667969 128.113281 C 102.230469 130.675781 103.824219 134.199219 103.824219 138.078125 L 103.824219 166.109375 C 103.824219 169.988281 102.230469 173.523438 99.667969 176.078125 C 97.097656 178.640625 93.5625 180.234375 89.683594 180.234375 Z M 114.976562 171.3125 L 114.976562 127.132812 C 126.175781 125.167969 136.097656 122.351562 144.730469 118.671875 C 153.183594 115.078125 160.414062 110.644531 166.433594 105.398438 C 178.824219 112.929688 191.847656 118.578125 205.503906 122.308594 C 218.738281 125.929688 232.515625 127.746094 246.847656 127.757812 L 246.847656 171.304688 C 246.847656 182.46875 244.023438 192.996094 239.078125 202.238281 C 230.496094 202.808594 220.753906 202.453125 211.167969 202.089844 L 209.210938 202.019531 C 208.335938 199.15625 206.796875 196.582031 204.769531 194.503906 C 201.488281 191.144531 196.949219 189.058594 191.960938 189.058594 C 186.972656 189.058594 182.4375 191.136719 179.152344 194.503906 C 175.914062 197.820312 173.90625 202.394531 173.90625 207.425781 C 173.90625 212.457031 175.914062 217.027344 179.152344 220.34375 C 182.4375 223.703125 186.972656 225.792969 191.960938 225.792969 C 196.949219 225.792969 201.488281 223.714844 204.769531 220.34375 C 206.71875 218.34375 208.207031 215.894531 209.097656 213.167969 L 210.777344 213.226562 C 217.671875 213.488281 224.625 213.746094 231.3125 213.695312 C 230.089844 215.140625 228.816406 216.542969 227.484375 217.886719 C 215.53125 229.835938 199.046875 237.257812 180.921875 237.257812 C 169.914062 237.257812 159.523438 234.511719 150.378906 229.6875 C 147.347656 228.042969 144.464844 226.15625 141.761719 224.058594 C 141.398438 223.78125 141.007812 223.558594 140.609375 223.375 C 138.417969 221.667969 136.324219 219.84375 134.359375 217.886719 C 122.398438 205.925781 114.976562 189.4375 114.976562 171.3125 Z M 198.835938 207.425781 C 198.835938 209.449219 198.050781 211.277344 196.777344 212.578125 C 195.546875 213.839844 193.832031 214.621094 191.945312 214.621094 C 190.054688 214.621094 188.34375 213.839844 187.113281 212.578125 C 185.839844 211.277344 185.050781 209.449219 185.050781 207.425781 C 185.050781 205.398438 185.839844 203.570312 187.113281 202.273438 C 188.34375 201.007812 190.054688 200.230469 191.945312 200.230469 C 193.832031 200.230469 195.546875 201.007812 196.777344 202.273438 C 198.050781 203.570312 198.835938 205.398438 198.835938 207.425781 Z M 149.332031 241.613281 C 151.597656 242.660156 153.921875 243.613281 156.300781 244.425781 C 163.402344 246.867188 170.988281 248.238281 178.851562 248.382812 C 178.929688 248.382812 179.007812 248.382812 179.085938 248.394531 C 179.457031 248.402344 179.820312 248.417969 180.191406 248.417969 L 183.953125 248.417969 C 192.289062 248.417969 200.335938 247.015625 207.851562 244.4375 C 212.15625 242.953125 216.296875 241.074219 220.21875 238.851562 L 220.21875 244.617188 C 220.21875 254.785156 216.050781 264.023438 209.351562 270.726562 C 202.648438 277.429688 193.398438 281.59375 183.242188 281.59375 L 180.910156 281.59375 C 170.746094 281.59375 161.507812 277.429688 154.804688 270.726562 C 148.101562 264.023438 143.9375 254.773438 143.9375 244.617188 L 143.9375 238.910156 C 145.695312 239.871094 147.496094 240.78125 149.332031 241.613281 Z M 18.890625 337.058594 C 18.890625 315.054688 27.898438 295.050781 42.402344 280.539062 C 56.90625 266.03125 76.917969 257.027344 98.921875 257.027344 L 134.410156 257.027344 C 136.636719 265.304688 141.007812 272.71875 146.90625 278.613281 C 154.378906 286.089844 164.304688 291.128906 175.328125 292.417969 L 175.328125 340.28125 L 18.890625 340.28125 Z M 342.933594 340.289062 L 186.496094 340.289062 L 186.496094 292.644531 C 198.457031 291.839844 209.253906 286.632812 217.257812 278.625 C 223.152344 272.726562 227.527344 265.304688 229.75 257.035156 L 262.902344 257.035156 C 284.90625 257.035156 304.910156 266.042969 319.414062 280.546875 C 333.917969 295.050781 342.925781 315.0625 342.925781 337.066406 L 342.925781 340.289062 Z M 342.933594 340.289062 " fill-opacity="1" fill-rule="nonzero"/></g></svg>