<svg xmlns="http://www.w3.org/2000/svg" xmlns:xlink="http://www.w3.org/1999/xlink" width="500" zoomAndPan="magnify" viewBox="0 0 375 374.999991" height="500" preserveAspectRatio="xMidYMid meet" version="1.0"><defs><clipPath id="12a61d4555"><path d="M 115 19.132812 L 322 19.132812 L 322 226 L 115 226 Z M 115 19.132812 " clip-rule="nonzero"/></clipPath><clipPath id="022ddc7bde"><path d="M 10.101562 216 L 361 216 L 361 353.632812 L 10.101562 353.632812 Z M 10.101562 216 " clip-rule="nonzero"/></clipPath></defs><g clip-path="url(#12a61d4555)"><path fill="#0c2c57" d="M 115.183594 122.222656 C 115.183594 179.042969 161.449219 225.3125 218.273438 225.3125 C 275.09375 225.3125 321.4375 179.042969 321.4375 122.222656 C 321.4375 65.398438 275.167969 19.132812 218.347656 19.132812 C 161.523438 19.132812 115.183594 65.398438 115.183594 122.222656 Z M 309.628906 122.222656 C 309.628906 172.550781 268.675781 213.503906 218.347656 213.503906 C 168.019531 213.503906 126.988281 172.550781 126.988281 122.222656 C 126.988281 71.894531 167.945312 30.9375 218.347656 30.9375 C 268.75 30.9375 309.628906 71.894531 309.628906 122.222656 Z M 309.628906 122.222656 " fill-opacity="1" fill-rule="nonzero"/></g><path fill="#0c2c57" d="M 244.988281 106.578125 C 248.234375 106.578125 250.890625 103.921875 250.890625 100.675781 L 250.890625 93.738281 C 250.890625 80.675781 239.671875 69.753906 224.839844 67.464844 L 224.839844 55.734375 C 224.839844 52.484375 222.183594 49.828125 218.9375 49.828125 C 215.691406 49.828125 213.035156 52.484375 213.035156 55.734375 L 213.035156 67.464844 C 198.199219 69.828125 186.984375 80.675781 186.984375 93.738281 L 186.984375 99.9375 C 186.984375 108.421875 191.78125 116.464844 199.898438 121.410156 L 231.777344 141.113281 C 236.425781 143.992188 239.082031 148.199219 239.082031 152.550781 L 239.082031 156.460938 C 239.082031 164.726562 230.078125 171.367188 218.9375 171.367188 L 217.683594 171.367188 C 206.613281 171.367188 197.535156 164.652344 197.535156 156.460938 L 197.535156 152.625 C 197.535156 149.378906 194.878906 146.722656 191.632812 146.722656 C 188.386719 146.722656 185.730469 149.378906 185.730469 152.625 L 185.730469 156.460938 C 185.730469 169.746094 197.316406 180.742188 212.441406 182.882812 L 212.371094 195.277344 C 212.371094 198.527344 214.953125 201.183594 218.199219 201.253906 C 218.199219 201.253906 218.199219 201.253906 218.273438 201.253906 C 221.519531 201.253906 224.175781 198.671875 224.175781 195.425781 L 224.25 182.953125 C 239.304688 180.816406 250.816406 169.820312 250.816406 156.609375 L 250.816406 152.699219 C 250.816406 144.210938 246.019531 136.167969 237.902344 131.226562 L 206.023438 111.523438 C 201.375 108.644531 198.71875 104.4375 198.71875 100.082031 L 198.71875 93.886719 C 198.71875 85.621094 207.71875 78.976562 218.863281 78.976562 C 230.007812 78.976562 239.007812 85.695312 239.007812 93.886719 L 239.007812 100.820312 C 239.082031 103.921875 241.664062 106.578125 244.988281 106.578125 Z M 244.988281 106.578125 " fill-opacity="1" fill-rule="nonzero"/><g clip-path="url(#022ddc7bde)"><path fill="#0c2c57" d="M 65.074219 216.679688 L 16.074219 216.679688 C 12.828125 216.679688 10.171875 219.335938 10.171875 222.582031 L 10.171875 331.796875 C 10.171875 335.046875 12.828125 337.703125 16.074219 337.703125 L 65.074219 337.703125 C 68.324219 337.703125 70.980469 335.046875 70.980469 331.796875 L 70.980469 322.425781 L 94.59375 322.425781 L 164.625 344.636719 C 180.488281 350.542969 193.847656 353.421875 207.128906 353.421875 C 220.488281 353.421875 233.84375 350.46875 249.78125 344.566406 C 250.375 344.34375 250.964844 344.046875 251.480469 343.605469 L 354.054688 259.921875 C 354.351562 259.628906 354.644531 259.332031 354.941406 259.035156 C 362.246094 249.960938 361.875 236.085938 354.054688 227.453125 C 346.304688 218.820312 333.835938 217.933594 325.128906 225.460938 L 273.914062 266.859375 C 273.914062 266.34375 273.914062 265.824219 273.914062 265.308594 C 273.691406 252.984375 264.027344 242.875 252.292969 242.875 L 195.398438 242.875 C 192.148438 242.875 189.050781 240.957031 187.132812 237.785156 C 186.6875 237.121094 186.171875 236.53125 185.507812 236.011719 C 161.378906 218.523438 130.898438 215.203125 104.113281 227.15625 L 94.222656 231.585938 L 70.980469 231.585938 L 70.980469 222.582031 C 70.980469 219.335938 68.394531 216.679688 65.074219 216.679688 Z M 39.691406 317.039062 C 36.441406 317.039062 33.785156 314.382812 33.785156 311.136719 C 33.785156 307.890625 36.441406 305.230469 39.691406 305.230469 C 42.9375 305.230469 45.59375 307.890625 45.59375 311.136719 C 45.59375 314.382812 42.9375 317.039062 39.691406 317.039062 Z M 59.171875 237.5625 L 59.171875 325.894531 L 49.503906 325.894531 C 54.226562 322.722656 57.402344 317.335938 57.402344 311.136719 C 57.402344 301.394531 49.429688 293.425781 39.691406 293.425781 C 29.949219 293.425781 21.980469 301.394531 21.980469 311.136719 C 21.980469 317.261719 25.152344 322.722656 29.875 325.894531 L 21.980469 325.894531 L 21.980469 228.484375 L 59.171875 228.484375 Z M 95.550781 243.464844 C 96.363281 243.464844 97.175781 243.320312 97.914062 242.949219 L 108.984375 238.003906 C 131.5625 227.96875 157.171875 230.625 177.757812 245.015625 C 181.890625 251.140625 188.386719 254.683594 195.46875 254.683594 L 252.367188 254.683594 C 257.679688 254.683594 262.105469 259.554688 262.179688 265.457031 C 262.253906 268.777344 261.074219 271.878906 258.933594 274.015625 C 257.902344 275.050781 256.644531 275.863281 255.390625 276.304688 C 253.695312 276.601562 251.996094 276.746094 250.300781 276.746094 L 186.984375 276.746094 C 183.738281 276.746094 181.082031 279.402344 181.082031 282.652344 C 181.082031 285.898438 183.738281 288.554688 186.984375 288.554688 L 252.957031 288.554688 C 254.726562 288.554688 256.5 288.332031 258.195312 287.890625 C 265.574219 286.5625 272.511719 283.316406 278.636719 278.445312 L 332.800781 234.609375 C 332.875 234.539062 332.875 234.539062 332.949219 234.464844 C 336.785156 231.144531 342.027344 231.585938 345.496094 235.347656 C 349.332031 239.554688 349.628906 246.566406 346.234375 251.214844 L 244.988281 333.863281 C 216.355469 344.34375 197.683594 344.195312 168.832031 333.496094 C 168.757812 333.496094 168.683594 333.421875 168.535156 333.421875 L 97.546875 310.839844 C 96.953125 310.691406 96.363281 310.546875 95.773438 310.546875 L 70.980469 310.546875 L 70.980469 243.390625 L 95.550781 243.390625 Z M 95.550781 243.464844 " fill-opacity="1" fill-rule="nonzero"/></g></svg>