<svg xmlns="http://www.w3.org/2000/svg" xmlns:xlink="http://www.w3.org/1999/xlink" width="500" zoomAndPan="magnify" viewBox="0 0 375 374.999991" height="500" preserveAspectRatio="xMidYMid meet" version="1.0"><path fill="#0c2c57" d="M 255.519531 120.589844 L 113 120.589844 C 112.621094 120.589844 112.246094 120.625 111.875 120.699219 C 111.503906 120.773438 111.144531 120.882812 110.792969 121.027344 C 110.441406 121.171875 110.109375 121.347656 109.796875 121.558594 C 109.480469 121.769531 109.191406 122.007812 108.921875 122.277344 C 108.65625 122.542969 108.414062 122.835938 108.207031 123.152344 C 107.996094 123.464844 107.816406 123.796875 107.671875 124.148438 C 107.527344 124.496094 107.417969 124.859375 107.34375 125.230469 C 107.269531 125.601562 107.234375 125.976562 107.234375 126.355469 L 107.234375 194.394531 C 107.234375 266.726562 182.78125 276.945312 183.542969 277.039062 C 184.019531 277.101562 184.496094 277.101562 184.972656 277.039062 C 185.734375 276.945312 261.285156 266.726562 261.285156 194.394531 L 261.285156 126.355469 C 261.285156 125.976562 261.246094 125.601562 261.175781 125.230469 C 261.101562 124.859375 260.992188 124.496094 260.847656 124.148438 C 260.699219 123.796875 260.523438 123.464844 260.3125 123.152344 C 260.101562 122.835938 259.863281 122.542969 259.597656 122.277344 C 259.328125 122.007812 259.035156 121.769531 258.722656 121.558594 C 258.40625 121.347656 258.074219 121.171875 257.726562 121.027344 C 257.375 120.882812 257.015625 120.773438 256.644531 120.699219 C 256.273438 120.625 255.898438 120.589844 255.519531 120.589844 Z M 249.753906 194.394531 C 249.753906 253.730469 191.765625 264.410156 184.257812 265.5625 C 176.707031 264.410156 118.765625 253.925781 118.765625 194.464844 L 118.765625 132.191406 L 249.753906 132.191406 Z M 249.753906 194.394531 " fill-opacity="1" fill-rule="nonzero"/><path fill="#0c2c57" d="M 157.894531 236.730469 L 210.621094 236.730469 C 211.1875 236.730469 211.753906 236.703125 212.316406 236.648438 C 212.882812 236.59375 213.441406 236.511719 213.996094 236.398438 C 214.554688 236.289062 215.101562 236.152344 215.644531 235.988281 C 216.1875 235.824219 216.71875 235.632812 217.242188 235.414062 C 217.765625 235.199219 218.277344 234.957031 218.777344 234.691406 C 219.277344 234.421875 219.761719 234.132812 220.234375 233.816406 C 220.703125 233.503906 221.160156 233.164062 221.597656 232.804688 C 222.035156 232.445312 222.453125 232.066406 222.855469 231.664062 C 223.253906 231.265625 223.636719 230.84375 223.996094 230.40625 C 224.355469 229.96875 224.691406 229.515625 225.007812 229.042969 C 225.320312 228.574219 225.613281 228.085938 225.878906 227.589844 C 226.144531 227.089844 226.386719 226.578125 226.605469 226.054688 C 226.820312 225.53125 227.011719 224.996094 227.175781 224.453125 C 227.339844 223.914062 227.476562 223.363281 227.589844 222.808594 C 227.699219 222.253906 227.78125 221.691406 227.839844 221.128906 C 227.894531 220.566406 227.921875 220 227.921875 219.433594 L 227.921875 184.835938 C 227.921875 184.457031 227.882812 184.082031 227.808594 183.710938 C 227.738281 183.339844 227.628906 182.980469 227.480469 182.628906 C 227.335938 182.28125 227.160156 181.945312 226.949219 181.632812 C 226.738281 181.316406 226.5 181.027344 226.230469 180.757812 C 225.964844 180.492188 225.671875 180.25 225.359375 180.042969 C 225.042969 179.832031 224.710938 179.652344 224.363281 179.507812 C 224.011719 179.363281 223.652344 179.253906 223.28125 179.179688 C 222.910156 179.105469 222.535156 179.070312 222.15625 179.070312 L 210.3125 179.070312 L 210.3125 148.902344 C 210.3125 148.523438 210.273438 148.148438 210.199219 147.777344 C 210.125 147.402344 210.015625 147.042969 209.871094 146.695312 C 209.726562 146.34375 209.550781 146.011719 209.339844 145.695312 C 209.128906 145.382812 208.890625 145.089844 208.621094 144.824219 C 208.355469 144.554688 208.0625 144.316406 207.75 144.105469 C 207.433594 143.894531 207.101562 143.71875 206.75 143.574219 C 206.402344 143.429688 206.042969 143.320312 205.667969 143.246094 C 205.296875 143.171875 204.921875 143.132812 204.542969 143.132812 L 163.972656 143.132812 C 163.59375 143.132812 163.21875 143.171875 162.847656 143.246094 C 162.476562 143.320312 162.117188 143.429688 161.765625 143.574219 C 161.417969 143.71875 161.085938 143.894531 160.769531 144.105469 C 160.453125 144.316406 160.164062 144.554688 159.894531 144.824219 C 159.628906 145.089844 159.390625 145.382812 159.179688 145.695312 C 158.96875 146.011719 158.789062 146.34375 158.644531 146.695312 C 158.5 147.042969 158.390625 147.402344 158.316406 147.777344 C 158.242188 148.148438 158.207031 148.523438 158.207031 148.902344 L 158.207031 179.070312 L 146.363281 179.070312 C 145.984375 179.070312 145.609375 179.105469 145.238281 179.179688 C 144.867188 179.253906 144.507812 179.363281 144.15625 179.507812 C 143.808594 179.652344 143.472656 179.832031 143.160156 180.042969 C 142.84375 180.25 142.554688 180.492188 142.285156 180.757812 C 142.019531 181.027344 141.777344 181.316406 141.570312 181.632812 C 141.359375 181.945312 141.179688 182.28125 141.035156 182.628906 C 140.890625 182.980469 140.78125 183.339844 140.707031 183.710938 C 140.632812 184.082031 140.597656 184.457031 140.597656 184.835938 L 140.597656 219.433594 C 140.597656 220 140.625 220.566406 140.679688 221.128906 C 140.734375 221.691406 140.820312 222.253906 140.929688 222.808594 C 141.039062 223.363281 141.175781 223.914062 141.34375 224.453125 C 141.507812 224.996094 141.695312 225.53125 141.914062 226.054688 C 142.128906 226.578125 142.371094 227.089844 142.640625 227.589844 C 142.90625 228.085938 143.199219 228.574219 143.511719 229.042969 C 143.828125 229.515625 144.164062 229.96875 144.523438 230.40625 C 144.882812 230.84375 145.261719 231.265625 145.664062 231.664062 C 146.0625 232.066406 146.484375 232.445312 146.921875 232.804688 C 147.359375 233.164062 147.8125 233.503906 148.285156 233.816406 C 148.757812 234.132812 149.242188 234.421875 149.742188 234.691406 C 150.242188 234.957031 150.753906 235.199219 151.277344 235.414062 C 151.800781 235.632812 152.332031 235.824219 152.875 235.988281 C 153.417969 236.152344 153.964844 236.289062 154.519531 236.398438 C 155.078125 236.511719 155.636719 236.59375 156.199219 236.648438 C 156.765625 236.703125 157.328125 236.730469 157.894531 236.730469 Z M 169.738281 154.722656 L 198.777344 154.722656 L 198.777344 179.070312 L 169.738281 179.070312 Z M 152.128906 190.601562 L 216.390625 190.601562 L 216.390625 219.433594 C 216.390625 219.8125 216.351562 220.1875 216.277344 220.558594 C 216.203125 220.929688 216.09375 221.289062 215.949219 221.640625 C 215.804688 221.988281 215.628906 222.320312 215.417969 222.636719 C 215.207031 222.953125 214.96875 223.242188 214.699219 223.511719 C 214.433594 223.777344 214.140625 224.015625 213.824219 224.226562 C 213.511719 224.4375 213.179688 224.617188 212.828125 224.761719 C 212.480469 224.90625 212.117188 225.015625 211.746094 225.089844 C 211.375 225.164062 211 225.199219 210.621094 225.199219 L 157.894531 225.199219 C 157.515625 225.199219 157.140625 225.164062 156.769531 225.089844 C 156.398438 225.015625 156.039062 224.90625 155.6875 224.761719 C 155.339844 224.617188 155.007812 224.4375 154.691406 224.226562 C 154.378906 224.015625 154.085938 223.777344 153.820312 223.511719 C 153.550781 223.242188 153.3125 222.953125 153.101562 222.636719 C 152.890625 222.320312 152.714844 221.988281 152.570312 221.640625 C 152.421875 221.289062 152.3125 220.929688 152.242188 220.558594 C 152.167969 220.1875 152.128906 219.8125 152.128906 219.433594 Z M 152.128906 190.601562 " fill-opacity="1" fill-rule="nonzero"/><path fill="#0c2c57" d="M 178.492188 211.488281 L 178.492188 216.550781 C 178.492188 216.929688 178.53125 217.304688 178.605469 217.675781 C 178.675781 218.046875 178.785156 218.40625 178.933594 218.757812 C 179.078125 219.105469 179.253906 219.4375 179.464844 219.753906 C 179.675781 220.070312 179.914062 220.359375 180.183594 220.628906 C 180.449219 220.894531 180.742188 221.132812 181.054688 221.34375 C 181.371094 221.554688 181.703125 221.734375 182.050781 221.878906 C 182.402344 222.023438 182.761719 222.132812 183.132812 222.207031 C 183.503906 222.28125 183.878906 222.316406 184.257812 222.316406 C 184.636719 222.316406 185.011719 222.28125 185.382812 222.207031 C 185.753906 222.132812 186.117188 222.023438 186.464844 221.878906 C 186.816406 221.734375 187.148438 221.554688 187.460938 221.34375 C 187.777344 221.132812 188.070312 220.894531 188.335938 220.628906 C 188.605469 220.359375 188.84375 220.070312 189.054688 219.753906 C 189.265625 219.4375 189.441406 219.105469 189.585938 218.757812 C 189.730469 218.40625 189.839844 218.046875 189.914062 217.675781 C 189.988281 217.304688 190.027344 216.929688 190.027344 216.550781 L 190.027344 211.488281 C 191.171875 210.621094 192.070312 209.546875 192.714844 208.265625 C 193.363281 206.984375 193.699219 205.625 193.714844 204.1875 C 193.714844 203.566406 193.65625 202.953125 193.535156 202.34375 C 193.414062 201.734375 193.234375 201.140625 192.996094 200.570312 C 192.757812 199.996094 192.46875 199.449219 192.121094 198.933594 C 191.777344 198.417969 191.386719 197.941406 190.945312 197.5 C 190.507812 197.0625 190.027344 196.667969 189.511719 196.324219 C 188.996094 195.980469 188.453125 195.6875 187.878906 195.449219 C 187.304688 195.214844 186.714844 195.035156 186.105469 194.914062 C 185.496094 194.792969 184.878906 194.730469 184.257812 194.730469 C 183.636719 194.730469 183.023438 194.792969 182.414062 194.914062 C 181.804688 195.035156 181.214844 195.214844 180.640625 195.449219 C 180.066406 195.6875 179.523438 195.980469 179.003906 196.324219 C 178.488281 196.667969 178.011719 197.0625 177.574219 197.5 C 177.132812 197.941406 176.742188 198.417969 176.394531 198.933594 C 176.050781 199.449219 175.761719 199.996094 175.523438 200.570312 C 175.285156 201.140625 175.105469 201.734375 174.984375 202.34375 C 174.863281 202.953125 174.800781 203.566406 174.800781 204.1875 C 174.820312 205.625 175.152344 206.984375 175.800781 208.265625 C 176.449219 209.546875 177.347656 210.621094 178.492188 211.488281 Z M 178.492188 211.488281 " fill-opacity="1" fill-rule="nonzero"/><path fill="#0c2c57" d="M 337.273438 256.082031 L 337.273438 200.484375 C 337.273438 200.105469 337.234375 199.730469 337.160156 199.359375 C 337.089844 198.988281 336.980469 198.628906 336.832031 198.277344 C 336.6875 197.929688 336.511719 197.597656 336.300781 197.28125 C 336.089844 196.96875 335.851562 196.675781 335.582031 196.40625 C 335.316406 196.140625 335.023438 195.902344 334.710938 195.691406 C 334.394531 195.480469 334.0625 195.304688 333.714844 195.15625 C 333.363281 195.011719 333.003906 194.902344 332.632812 194.828125 C 332.261719 194.757812 331.886719 194.71875 331.507812 194.71875 L 313.503906 194.71875 C 313.746094 191.445312 314 188.167969 314 184.835938 C 313.988281 174.824219 312.828125 164.945312 310.511719 155.207031 C 308.199219 145.464844 304.792969 136.121094 300.300781 127.171875 L 334.597656 127.171875 C 334.976562 127.171875 335.351562 127.136719 335.722656 127.0625 C 336.09375 126.988281 336.453125 126.878906 336.804688 126.734375 C 337.152344 126.589844 337.484375 126.410156 337.800781 126.203125 C 338.117188 125.992188 338.40625 125.75 338.675781 125.484375 C 338.941406 125.214844 339.179688 124.925781 339.390625 124.609375 C 339.601562 124.296875 339.78125 123.964844 339.925781 123.613281 C 340.070312 123.265625 340.179688 122.902344 340.253906 122.53125 C 340.328125 122.160156 340.363281 121.785156 340.363281 121.40625 L 340.363281 87.960938 C 340.957031 87.738281 341.535156 87.484375 342.097656 87.191406 C 342.660156 86.902344 343.203125 86.582031 343.730469 86.226562 C 344.257812 85.875 344.761719 85.492188 345.242188 85.082031 C 345.722656 84.667969 346.179688 84.230469 346.609375 83.765625 C 347.039062 83.300781 347.441406 82.8125 347.816406 82.300781 C 348.191406 81.789062 348.53125 81.257812 348.84375 80.707031 C 349.15625 80.15625 349.4375 79.589844 349.683594 79.007812 C 349.929688 78.421875 350.140625 77.828125 350.320312 77.21875 C 350.496094 76.609375 350.636719 75.996094 350.742188 75.371094 C 350.847656 74.746094 350.917969 74.117188 350.953125 73.484375 C 350.984375 72.851562 350.980469 72.21875 350.941406 71.585938 C 350.898438 70.957031 350.824219 70.328125 350.710938 69.703125 C 350.597656 69.082031 350.445312 68.46875 350.261719 67.859375 C 350.078125 67.253906 349.859375 66.660156 349.605469 66.082031 C 349.351562 65.5 349.066406 64.9375 348.746094 64.390625 C 348.425781 63.84375 348.078125 63.316406 347.699219 62.808594 C 347.316406 62.300781 346.910156 61.820312 346.472656 61.359375 C 346.039062 60.898438 345.574219 60.46875 345.089844 60.0625 C 344.601562 59.65625 344.09375 59.28125 343.566406 58.933594 C 343.035156 58.585938 342.488281 58.269531 341.921875 57.988281 C 341.355469 57.703125 340.773438 57.453125 340.175781 57.238281 C 339.582031 57.023438 338.976562 56.84375 338.359375 56.695312 C 337.742188 56.550781 337.121094 56.441406 336.492188 56.367188 C 335.863281 56.296875 335.230469 56.257812 334.597656 56.257812 C 333.964844 56.257812 333.332031 56.296875 332.703125 56.367188 C 332.074219 56.441406 331.453125 56.550781 330.835938 56.695312 C 330.21875 56.84375 329.613281 57.023438 329.015625 57.238281 C 328.421875 57.453125 327.839844 57.703125 327.273438 57.988281 C 326.707031 58.269531 326.160156 58.585938 325.628906 58.933594 C 325.097656 59.28125 324.589844 59.65625 324.105469 60.0625 C 323.617188 60.46875 323.15625 60.898438 322.722656 61.359375 C 322.285156 61.820312 321.875 62.300781 321.496094 62.808594 C 321.117188 63.316406 320.765625 63.84375 320.449219 64.390625 C 320.128906 64.9375 319.84375 65.5 319.589844 66.082031 C 319.335938 66.660156 319.117188 67.253906 318.933594 67.859375 C 318.746094 68.46875 318.597656 69.082031 318.484375 69.703125 C 318.371094 70.328125 318.296875 70.957031 318.253906 71.585938 C 318.214844 72.21875 318.210938 72.851562 318.242188 73.484375 C 318.277344 74.117188 318.34375 74.746094 318.449219 75.371094 C 318.558594 75.996094 318.699219 76.609375 318.875 77.21875 C 319.054688 77.828125 319.265625 78.421875 319.511719 79.007812 C 319.757812 79.589844 320.039062 80.15625 320.347656 80.707031 C 320.660156 81.257812 321.003906 81.789062 321.378906 82.300781 C 321.753906 82.8125 322.15625 83.300781 322.585938 83.765625 C 323.015625 84.230469 323.472656 84.667969 323.953125 85.082031 C 324.433594 85.492188 324.9375 85.875 325.464844 86.226562 C 325.988281 86.582031 326.535156 86.902344 327.097656 87.191406 C 327.660156 87.484375 328.238281 87.738281 328.832031 87.960938 L 328.832031 115.640625 L 293.816406 115.640625 C 291.039062 111.238281 288.003906 107.023438 284.714844 102.988281 C 281.425781 98.953125 277.90625 95.128906 274.160156 91.519531 C 270.410156 87.910156 266.457031 84.535156 262.300781 81.402344 C 258.144531 78.265625 253.816406 75.394531 249.316406 72.78125 C 244.8125 70.167969 240.171875 67.832031 235.386719 65.78125 C 230.605469 63.726562 225.714844 61.96875 220.722656 60.503906 C 215.726562 59.039062 210.660156 57.878906 205.527344 57.023438 C 200.394531 56.167969 195.226562 55.625 190.027344 55.394531 L 190.027344 33.992188 C 190.027344 33.613281 189.988281 33.238281 189.914062 32.867188 C 189.839844 32.492188 189.730469 32.132812 189.585938 31.785156 C 189.441406 31.433594 189.265625 31.101562 189.054688 30.785156 C 188.84375 30.472656 188.605469 30.179688 188.335938 29.914062 C 188.070312 29.644531 187.777344 29.40625 187.460938 29.195312 C 187.148438 28.984375 186.816406 28.808594 186.464844 28.664062 C 186.117188 28.519531 185.753906 28.410156 185.382812 28.335938 C 185.011719 28.261719 184.636719 28.222656 184.257812 28.222656 L 129.605469 28.222656 C 129.382812 27.632812 129.128906 27.054688 128.835938 26.492188 C 128.546875 25.929688 128.226562 25.386719 127.871094 24.859375 C 127.519531 24.335938 127.136719 23.832031 126.726562 23.351562 C 126.3125 22.871094 125.875 22.414062 125.410156 21.984375 C 124.949219 21.554688 124.460938 21.152344 123.949219 20.777344 C 123.4375 20.40625 122.90625 20.0625 122.355469 19.75 C 121.804688 19.4375 121.238281 19.160156 120.65625 18.914062 C 120.074219 18.667969 119.476562 18.457031 118.871094 18.277344 C 118.261719 18.101562 117.644531 17.960938 117.023438 17.855469 C 116.398438 17.75 115.769531 17.679688 115.136719 17.648438 C 114.503906 17.613281 113.875 17.617188 113.242188 17.660156 C 112.609375 17.699219 111.984375 17.777344 111.359375 17.890625 C 110.738281 18.003906 110.125 18.152344 109.519531 18.335938 C 108.914062 18.523438 108.320312 18.742188 107.742188 18.992188 C 107.160156 19.246094 106.597656 19.535156 106.050781 19.851562 C 105.503906 20.171875 104.976562 20.519531 104.472656 20.898438 C 103.964844 21.28125 103.480469 21.6875 103.023438 22.125 C 102.5625 22.558594 102.132812 23.019531 101.726562 23.503906 C 101.320312 23.992188 100.945312 24.5 100.597656 25.027344 C 100.25 25.558594 99.9375 26.105469 99.652344 26.671875 C 99.371094 27.238281 99.121094 27.820312 98.90625 28.414062 C 98.691406 29.007812 98.507812 29.613281 98.363281 30.230469 C 98.21875 30.847656 98.109375 31.46875 98.035156 32.097656 C 97.964844 32.726562 97.925781 33.355469 97.925781 33.992188 C 97.925781 34.625 97.964844 35.253906 98.035156 35.882812 C 98.109375 36.511719 98.21875 37.132812 98.363281 37.75 C 98.507812 38.367188 98.691406 38.972656 98.90625 39.566406 C 99.121094 40.160156 99.371094 40.742188 99.652344 41.308594 C 99.9375 41.875 100.25 42.421875 100.597656 42.953125 C 100.945312 43.480469 101.320312 43.988281 101.726562 44.476562 C 102.132812 44.960938 102.5625 45.421875 103.023438 45.855469 C 103.480469 46.292969 103.964844 46.699219 104.472656 47.082031 C 104.976562 47.460938 105.503906 47.808594 106.050781 48.128906 C 106.597656 48.445312 107.160156 48.734375 107.742188 48.988281 C 108.320312 49.238281 108.914062 49.457031 109.519531 49.644531 C 110.125 49.828125 110.738281 49.976562 111.359375 50.089844 C 111.984375 50.203125 112.609375 50.28125 113.242188 50.320312 C 113.875 50.363281 114.503906 50.367188 115.136719 50.332031 C 115.769531 50.300781 116.398438 50.230469 117.023438 50.125 C 117.644531 50.019531 118.261719 49.878906 118.871094 49.703125 C 119.476562 49.523438 120.074219 49.3125 120.65625 49.066406 C 121.238281 48.820312 121.804688 48.542969 122.355469 48.230469 C 122.90625 47.917969 123.4375 47.574219 123.949219 47.203125 C 124.460938 46.828125 124.949219 46.425781 125.410156 45.996094 C 125.875 45.566406 126.3125 45.109375 126.726562 44.628906 C 127.136719 44.148438 127.519531 43.644531 127.871094 43.121094 C 128.226562 42.59375 128.546875 42.050781 128.835938 41.488281 C 129.128906 40.925781 129.382812 40.347656 129.605469 39.757812 L 178.492188 39.757812 L 178.492188 55.382812 C 176.523438 55.472656 174.558594 55.605469 172.597656 55.785156 C 170.636719 55.964844 168.679688 56.1875 166.726562 56.457031 C 164.777344 56.726562 162.832031 57.039062 160.894531 57.394531 C 158.957031 57.75 157.027344 58.152344 155.109375 58.597656 C 153.191406 59.039062 151.28125 59.527344 149.386719 60.058594 C 147.488281 60.589844 145.605469 61.167969 143.734375 61.785156 C 141.863281 62.402344 140.007812 63.058594 138.167969 63.761719 C 136.328125 64.464844 134.503906 65.207031 132.695312 65.992188 C 130.890625 66.777344 129.101562 67.601562 127.332031 68.46875 C 125.5625 69.335938 123.8125 70.242188 122.085938 71.1875 C 120.359375 72.132812 118.652344 73.117188 116.96875 74.144531 C 115.285156 75.167969 113.628906 76.226562 111.992188 77.328125 C 110.359375 78.425781 108.75 79.5625 107.167969 80.734375 C 105.582031 81.90625 104.027344 83.117188 102.5 84.359375 C 100.972656 85.601562 99.472656 86.878906 98.003906 88.191406 C 96.535156 89.503906 95.09375 90.847656 93.6875 92.226562 C 92.277344 93.601562 90.902344 95.011719 89.558594 96.453125 C 88.214844 97.890625 86.902344 99.363281 85.625 100.859375 C 84.347656 102.359375 83.105469 103.890625 81.898438 105.445312 C 80.691406 107 79.519531 108.585938 78.382812 110.195312 C 77.246094 111.804688 76.148438 113.4375 75.085938 115.097656 C 74.027344 116.757812 73.003906 118.441406 72.019531 120.148438 C 71.035156 121.855469 70.089844 123.582031 69.183594 125.332031 C 68.277344 127.082031 67.414062 128.847656 66.585938 130.636719 C 65.761719 132.425781 64.976562 134.234375 64.234375 136.058594 C 63.492188 137.882812 62.792969 139.722656 62.132812 141.578125 C 61.472656 143.4375 60.855469 145.308594 60.285156 147.191406 C 59.710938 149.074219 59.179688 150.972656 58.691406 152.882812 C 58.203125 154.789062 57.761719 156.707031 57.359375 158.636719 C 56.960938 160.566406 56.605469 162.503906 56.292969 164.449219 C 55.980469 166.394531 55.714844 168.34375 55.492188 170.300781 C 55.269531 172.257812 55.089844 174.222656 54.957031 176.1875 L 40.101562 176.1875 L 40.101562 128.742188 C 40.695312 128.519531 41.273438 128.261719 41.835938 127.972656 C 42.398438 127.683594 42.941406 127.359375 43.464844 127.007812 C 43.992188 126.652344 44.496094 126.273438 44.976562 125.859375 C 45.457031 125.449219 45.910156 125.011719 46.34375 124.546875 C 46.773438 124.082031 47.175781 123.59375 47.546875 123.082031 C 47.921875 122.574219 48.265625 122.042969 48.574219 121.492188 C 48.886719 120.941406 49.167969 120.375 49.414062 119.789062 C 49.660156 119.207031 49.871094 118.613281 50.046875 118.003906 C 50.222656 117.398438 50.367188 116.78125 50.472656 116.15625 C 50.578125 115.53125 50.644531 114.90625 50.679688 114.273438 C 50.710938 113.640625 50.707031 113.007812 50.667969 112.378906 C 50.625 111.746094 50.550781 111.117188 50.4375 110.496094 C 50.324219 109.875 50.175781 109.257812 49.988281 108.652344 C 49.804688 108.046875 49.585938 107.457031 49.332031 106.875 C 49.078125 106.296875 48.792969 105.730469 48.472656 105.1875 C 48.15625 104.640625 47.804688 104.113281 47.425781 103.605469 C 47.046875 103.101562 46.640625 102.617188 46.203125 102.15625 C 45.765625 101.699219 45.304688 101.265625 44.820312 100.863281 C 44.335938 100.457031 43.828125 100.078125 43.296875 99.734375 C 42.769531 99.386719 42.21875 99.070312 41.652344 98.789062 C 41.085938 98.507812 40.507812 98.257812 39.910156 98.039062 C 39.316406 97.824219 38.710938 97.644531 38.09375 97.5 C 37.480469 97.355469 36.855469 97.246094 36.230469 97.171875 C 35.601562 97.097656 34.96875 97.0625 34.335938 97.0625 C 33.703125 97.0625 33.074219 97.097656 32.445312 97.171875 C 31.816406 97.246094 31.191406 97.355469 30.578125 97.5 C 29.960938 97.644531 29.355469 97.824219 28.761719 98.039062 C 28.164062 98.257812 27.585938 98.507812 27.019531 98.789062 C 26.453125 99.070312 25.90625 99.386719 25.375 99.734375 C 24.84375 100.078125 24.335938 100.457031 23.851562 100.863281 C 23.367188 101.265625 22.90625 101.699219 22.46875 102.15625 C 22.035156 102.617188 21.625 103.101562 21.246094 103.605469 C 20.867188 104.113281 20.515625 104.640625 20.199219 105.1875 C 19.878906 105.730469 19.59375 106.296875 19.339844 106.875 C 19.085938 107.457031 18.867188 108.046875 18.683594 108.652344 C 18.5 109.257812 18.347656 109.875 18.234375 110.496094 C 18.121094 111.117188 18.046875 111.746094 18.003906 112.378906 C 17.964844 113.007812 17.960938 113.640625 17.992188 114.273438 C 18.027344 114.90625 18.09375 115.53125 18.199219 116.15625 C 18.304688 116.78125 18.449219 117.398438 18.625 118.003906 C 18.800781 118.613281 19.011719 119.207031 19.261719 119.789062 C 19.507812 120.375 19.785156 120.941406 20.097656 121.492188 C 20.410156 122.042969 20.75 122.574219 21.125 123.082031 C 21.5 123.59375 21.898438 124.082031 22.332031 124.546875 C 22.761719 125.011719 23.214844 125.449219 23.695312 125.859375 C 24.175781 126.273438 24.679688 126.652344 25.207031 127.007812 C 25.730469 127.359375 26.273438 127.683594 26.835938 127.972656 C 27.398438 128.261719 27.976562 128.519531 28.570312 128.742188 L 28.570312 181.953125 C 28.570312 182.332031 28.605469 182.707031 28.679688 183.078125 C 28.753906 183.449219 28.863281 183.808594 29.007812 184.160156 C 29.152344 184.507812 29.332031 184.839844 29.542969 185.15625 C 29.753906 185.472656 29.992188 185.761719 30.257812 186.03125 C 30.527344 186.296875 30.816406 186.535156 31.132812 186.746094 C 31.449219 186.957031 31.78125 187.136719 32.128906 187.28125 C 32.480469 187.425781 32.839844 187.535156 33.210938 187.609375 C 33.582031 187.683594 33.957031 187.71875 34.335938 187.71875 L 54.667969 187.71875 C 54.777344 192.648438 55.167969 197.550781 55.839844 202.433594 C 56.511719 207.316406 57.457031 212.148438 58.679688 216.921875 C 59.902344 221.699219 61.390625 226.386719 63.148438 230.992188 C 64.90625 235.597656 66.921875 240.085938 69.191406 244.460938 C 71.460938 248.835938 73.972656 253.066406 76.726562 257.15625 C 79.480469 261.242188 82.460938 265.160156 85.660156 268.910156 C 88.863281 272.65625 92.265625 276.210938 95.875 279.570312 C 99.480469 282.929688 103.265625 286.070312 107.234375 288.996094 L 107.234375 312.0625 L 64.957031 312.0625 C 64.730469 311.46875 64.476562 310.890625 64.183594 310.328125 C 63.894531 309.765625 63.574219 309.222656 63.21875 308.695312 C 62.867188 308.167969 62.484375 307.667969 62.074219 307.183594 C 61.660156 306.703125 61.222656 306.246094 60.757812 305.816406 C 60.292969 305.386719 59.804688 304.984375 59.292969 304.609375 C 58.785156 304.238281 58.253906 303.894531 57.699219 303.582031 C 57.148438 303.269531 56.582031 302.988281 56 302.742188 C 55.414062 302.496094 54.820312 302.285156 54.210938 302.105469 C 53.605469 301.929688 52.988281 301.789062 52.363281 301.683594 C 51.738281 301.578125 51.109375 301.507812 50.476562 301.476562 C 49.84375 301.441406 49.210938 301.445312 48.582031 301.484375 C 47.949219 301.527344 47.320312 301.605469 46.699219 301.71875 C 46.074219 301.832031 45.460938 301.980469 44.855469 302.164062 C 44.246094 302.347656 43.65625 302.566406 43.074219 302.820312 C 42.492188 303.074219 41.929688 303.359375 41.382812 303.679688 C 40.835938 304 40.308594 304.347656 39.800781 304.726562 C 39.292969 305.109375 38.8125 305.515625 38.351562 305.953125 C 37.894531 306.390625 37.460938 306.851562 37.054688 307.335938 C 36.648438 307.824219 36.273438 308.332031 35.925781 308.859375 C 35.578125 309.390625 35.261719 309.9375 34.980469 310.503906 C 34.695312 311.070312 34.449219 311.652344 34.230469 312.25 C 34.015625 312.84375 33.835938 313.449219 33.691406 314.066406 C 33.542969 314.683594 33.433594 315.304688 33.363281 315.933594 C 33.289062 316.5625 33.25 317.195312 33.25 317.828125 C 33.25 318.460938 33.289062 319.09375 33.363281 319.722656 C 33.433594 320.351562 33.542969 320.976562 33.691406 321.589844 C 33.835938 322.207031 34.015625 322.8125 34.230469 323.410156 C 34.449219 324.003906 34.695312 324.585938 34.980469 325.152344 C 35.261719 325.71875 35.578125 326.265625 35.925781 326.796875 C 36.273438 327.328125 36.648438 327.835938 37.054688 328.320312 C 37.460938 328.808594 37.894531 329.269531 38.351562 329.707031 C 38.8125 330.140625 39.292969 330.550781 39.800781 330.929688 C 40.308594 331.308594 40.835938 331.660156 41.382812 331.976562 C 41.929688 332.296875 42.492188 332.582031 43.074219 332.835938 C 43.65625 333.089844 44.246094 333.308594 44.855469 333.492188 C 45.460938 333.679688 46.074219 333.828125 46.695312 333.941406 C 47.320312 334.054688 47.949219 334.132812 48.582031 334.171875 C 49.210938 334.210938 49.84375 334.214844 50.476562 334.183594 C 51.109375 334.148438 51.738281 334.082031 52.363281 333.976562 C 52.988281 333.871094 53.605469 333.726562 54.210938 333.550781 C 54.820312 333.375 55.414062 333.160156 56 332.914062 C 56.582031 332.667969 57.148438 332.390625 57.699219 332.078125 C 58.253906 331.765625 58.785156 331.421875 59.292969 331.046875 C 59.804688 330.671875 60.292969 330.269531 60.757812 329.839844 C 61.222656 329.410156 61.660156 328.953125 62.074219 328.472656 C 62.484375 327.992188 62.867188 327.488281 63.21875 326.960938 C 63.574219 326.4375 63.894531 325.890625 64.183594 325.328125 C 64.476562 324.765625 64.730469 324.1875 64.957031 323.59375 L 113 323.59375 C 113.378906 323.59375 113.753906 323.558594 114.125 323.484375 C 114.496094 323.410156 114.855469 323.300781 115.207031 323.15625 C 115.554688 323.011719 115.886719 322.832031 116.203125 322.625 C 116.519531 322.414062 116.808594 322.175781 117.078125 321.90625 C 117.34375 321.636719 117.582031 321.347656 117.792969 321.03125 C 118.003906 320.71875 118.183594 320.386719 118.328125 320.035156 C 118.472656 319.6875 118.582031 319.324219 118.65625 318.953125 C 118.730469 318.582031 118.765625 318.207031 118.765625 317.828125 L 118.765625 296.703125 C 123.007812 299.214844 127.382812 301.472656 131.882812 303.484375 C 136.386719 305.492188 140.992188 307.234375 145.695312 308.714844 C 150.398438 310.195312 155.171875 311.398438 160.015625 312.328125 C 164.855469 313.257812 169.734375 313.90625 174.652344 314.277344 C 179.570312 314.644531 184.492188 314.730469 189.417969 314.53125 C 194.34375 314.332031 199.246094 313.851562 204.117188 313.089844 C 208.988281 312.328125 213.800781 311.289062 218.550781 309.976562 C 223.304688 308.660156 227.964844 307.074219 232.535156 305.222656 L 232.535156 335.679688 C 232.535156 336.058594 232.570312 336.433594 232.644531 336.804688 C 232.71875 337.175781 232.828125 337.539062 232.972656 337.886719 C 233.117188 338.238281 233.296875 338.570312 233.507812 338.886719 C 233.714844 339.199219 233.957031 339.492188 234.222656 339.757812 C 234.492188 340.027344 234.78125 340.265625 235.097656 340.476562 C 235.410156 340.6875 235.742188 340.863281 236.09375 341.007812 C 236.445312 341.152344 236.804688 341.261719 237.175781 341.335938 C 237.546875 341.410156 237.921875 341.449219 238.300781 341.449219 L 284.316406 341.449219 C 284.539062 342.039062 284.796875 342.617188 285.085938 343.179688 C 285.375 343.742188 285.695312 344.285156 286.050781 344.8125 C 286.402344 345.335938 286.785156 345.839844 287.195312 346.320312 C 287.609375 346.800781 288.046875 347.257812 288.511719 347.6875 C 288.972656 348.117188 289.460938 348.519531 289.972656 348.894531 C 290.484375 349.265625 291.015625 349.609375 291.566406 349.921875 C 292.117188 350.234375 292.683594 350.511719 293.265625 350.757812 C 293.847656 351.003906 294.445312 351.214844 295.050781 351.390625 C 295.660156 351.570312 296.277344 351.710938 296.898438 351.816406 C 297.523438 351.921875 298.152344 351.992188 298.785156 352.023438 C 299.417969 352.058594 300.046875 352.054688 300.679688 352.011719 C 301.3125 351.972656 301.9375 351.894531 302.5625 351.78125 C 303.183594 351.667969 303.796875 351.519531 304.402344 351.335938 C 305.007812 351.148438 305.601562 350.929688 306.179688 350.675781 C 306.761719 350.425781 307.324219 350.136719 307.871094 349.820312 C 308.417969 349.5 308.945312 349.152344 309.449219 348.773438 C 309.957031 348.390625 310.441406 347.984375 310.898438 347.546875 C 311.359375 347.113281 311.789062 346.652344 312.195312 346.164062 C 312.601562 345.679688 312.976562 345.171875 313.324219 344.640625 C 313.671875 344.113281 313.984375 343.566406 314.269531 343 C 314.550781 342.433594 314.800781 341.851562 315.015625 341.257812 C 315.230469 340.664062 315.414062 340.054688 315.558594 339.441406 C 315.703125 338.824219 315.8125 338.203125 315.886719 337.574219 C 315.957031 336.945312 315.996094 336.3125 315.996094 335.679688 C 315.996094 335.046875 315.957031 334.417969 315.886719 333.789062 C 315.8125 333.160156 315.703125 332.539062 315.558594 331.921875 C 315.414062 331.304688 315.230469 330.699219 315.015625 330.105469 C 314.800781 329.511719 314.550781 328.929688 314.269531 328.363281 C 313.984375 327.796875 313.671875 327.25 313.324219 326.71875 C 312.976562 326.191406 312.601562 325.683594 312.195312 325.195312 C 311.789062 324.710938 311.359375 324.25 310.898438 323.8125 C 310.441406 323.378906 309.957031 322.96875 309.449219 322.589844 C 308.945312 322.210938 308.417969 321.863281 307.871094 321.542969 C 307.324219 321.222656 306.761719 320.9375 306.179688 320.683594 C 305.601562 320.429688 305.007812 320.210938 304.402344 320.027344 C 303.796875 319.84375 303.183594 319.695312 302.5625 319.582031 C 301.9375 319.46875 301.3125 319.390625 300.679688 319.351562 C 300.046875 319.308594 299.417969 319.304688 298.785156 319.339844 C 298.152344 319.371094 297.523438 319.441406 296.898438 319.546875 C 296.277344 319.652344 295.660156 319.792969 295.050781 319.96875 C 294.445312 320.148438 293.847656 320.359375 293.265625 320.605469 C 292.683594 320.851562 292.117188 321.128906 291.566406 321.441406 C 291.015625 321.753906 290.484375 322.097656 289.972656 322.46875 C 289.460938 322.84375 288.976562 323.246094 288.511719 323.675781 C 288.046875 324.105469 287.609375 324.5625 287.195312 325.042969 C 286.785156 325.523438 286.402344 326.027344 286.050781 326.550781 C 285.695312 327.078125 285.375 327.621094 285.085938 328.183594 C 284.796875 328.746094 284.539062 329.324219 284.316406 329.914062 L 244.066406 329.914062 L 244.066406 299.851562 C 248.503906 297.535156 252.789062 294.976562 256.929688 292.167969 C 261.070312 289.359375 265.035156 286.320312 268.824219 283.054688 C 272.613281 279.789062 276.199219 276.316406 279.589844 272.632812 C 282.976562 268.953125 286.140625 265.089844 289.082031 261.042969 C 292.023438 256.996094 294.722656 252.792969 297.179688 248.4375 C 299.636719 244.078125 301.832031 239.59375 303.769531 234.980469 C 305.707031 230.371094 307.375 225.660156 308.769531 220.855469 C 310.164062 216.054688 311.277344 211.183594 312.109375 206.25 L 325.773438 206.25 L 325.773438 256.082031 C 325.183594 256.308594 324.605469 256.5625 324.039062 256.851562 C 323.476562 257.144531 322.933594 257.464844 322.40625 257.820312 C 321.882812 258.171875 321.378906 258.554688 320.898438 258.964844 C 320.414062 259.378906 319.960938 259.816406 319.527344 260.28125 C 319.097656 260.746094 318.695312 261.234375 318.324219 261.746094 C 317.949219 262.253906 317.605469 262.785156 317.292969 263.335938 C 316.980469 263.890625 316.703125 264.457031 316.457031 265.039062 C 316.207031 265.625 315.996094 266.21875 315.820312 266.828125 C 315.640625 267.433594 315.5 268.050781 315.394531 268.675781 C 315.289062 269.300781 315.21875 269.929688 315.1875 270.5625 C 315.152344 271.195312 315.15625 271.828125 315.199219 272.457031 C 315.238281 273.089844 315.316406 273.71875 315.429688 274.339844 C 315.542969 274.964844 315.691406 275.578125 315.875 276.183594 C 316.0625 276.792969 316.28125 277.382812 316.535156 277.964844 C 316.785156 278.546875 317.074219 279.109375 317.390625 279.65625 C 317.710938 280.203125 318.058594 280.730469 318.441406 281.238281 C 318.820312 281.742188 319.230469 282.226562 319.664062 282.6875 C 320.101562 283.144531 320.5625 283.578125 321.046875 283.984375 C 321.535156 284.390625 322.042969 284.765625 322.574219 285.113281 C 323.101562 285.460938 323.652344 285.773438 324.21875 286.058594 C 324.785156 286.34375 325.367188 286.589844 325.960938 286.808594 C 326.554688 287.023438 327.164062 287.203125 327.777344 287.347656 C 328.394531 287.496094 329.019531 287.605469 329.648438 287.675781 C 330.277344 287.75 330.90625 287.789062 331.542969 287.789062 C 332.175781 287.789062 332.804688 287.75 333.433594 287.675781 C 334.0625 287.605469 334.6875 287.496094 335.304688 287.347656 C 335.917969 287.203125 336.527344 287.023438 337.121094 286.808594 C 337.71875 286.589844 338.296875 286.34375 338.863281 286.058594 C 339.429688 285.773438 339.980469 285.460938 340.507812 285.113281 C 341.039062 284.765625 341.546875 284.390625 342.035156 283.984375 C 342.519531 283.578125 342.980469 283.144531 343.417969 282.6875 C 343.851562 282.226562 344.261719 281.742188 344.640625 281.238281 C 345.023438 280.730469 345.371094 280.203125 345.691406 279.65625 C 346.007812 279.109375 346.296875 278.546875 346.546875 277.964844 C 346.800781 277.382812 347.019531 276.792969 347.207031 276.183594 C 347.390625 275.578125 347.539062 274.964844 347.652344 274.339844 C 347.765625 273.71875 347.84375 273.089844 347.882812 272.457031 C 347.925781 271.828125 347.929688 271.195312 347.894531 270.5625 C 347.863281 269.929688 347.792969 269.300781 347.6875 268.675781 C 347.582031 268.050781 347.441406 267.433594 347.261719 266.828125 C 347.085938 266.21875 346.875 265.625 346.628906 265.039062 C 346.378906 264.457031 346.101562 263.890625 345.789062 263.335938 C 345.476562 262.785156 345.132812 262.253906 344.757812 261.746094 C 344.386719 261.234375 343.984375 260.746094 343.554688 260.28125 C 343.121094 259.816406 342.667969 259.378906 342.183594 258.964844 C 341.703125 258.554688 341.199219 258.171875 340.675781 257.820312 C 340.148438 257.464844 339.605469 257.144531 339.042969 256.851562 C 338.476562 256.5625 337.898438 256.308594 337.308594 256.082031 Z M 334.597656 67.792969 C 334.914062 67.792969 335.226562 67.824219 335.539062 67.886719 C 335.847656 67.949219 336.152344 68.042969 336.445312 68.164062 C 336.738281 68.285156 337.015625 68.433594 337.277344 68.609375 C 337.539062 68.789062 337.785156 68.988281 338.007812 69.210938 C 338.230469 69.4375 338.429688 69.679688 338.605469 69.945312 C 338.78125 70.210938 338.929688 70.488281 339.050781 70.78125 C 339.171875 71.074219 339.265625 71.375 339.324219 71.6875 C 339.386719 71.996094 339.417969 72.3125 339.417969 72.628906 C 339.417969 72.945312 339.386719 73.257812 339.324219 73.570312 C 339.261719 73.878906 339.171875 74.183594 339.050781 74.476562 C 338.929688 74.769531 338.777344 75.046875 338.601562 75.308594 C 338.425781 75.574219 338.226562 75.816406 338.003906 76.042969 C 337.777344 76.265625 337.535156 76.464844 337.269531 76.640625 C 337.007812 76.816406 336.730469 76.964844 336.4375 77.085938 C 336.144531 77.210938 335.84375 77.300781 335.53125 77.363281 C 335.21875 77.425781 334.90625 77.457031 334.589844 77.457031 C 334.273438 77.457031 333.957031 77.425781 333.648438 77.363281 C 333.335938 77.304688 333.035156 77.210938 332.742188 77.089844 C 332.449219 76.96875 332.171875 76.820312 331.90625 76.644531 C 331.644531 76.46875 331.398438 76.269531 331.175781 76.046875 C 330.949219 75.824219 330.75 75.578125 330.574219 75.316406 C 330.394531 75.054688 330.246094 74.773438 330.125 74.480469 C 330.003906 74.191406 329.910156 73.886719 329.847656 73.578125 C 329.785156 73.265625 329.753906 72.953125 329.753906 72.636719 C 329.753906 72.316406 329.785156 72.003906 329.847656 71.691406 C 329.910156 71.378906 330.003906 71.078125 330.125 70.785156 C 330.246094 70.492188 330.398438 70.210938 330.574219 69.949219 C 330.75 69.683594 330.949219 69.4375 331.175781 69.214844 C 331.398438 68.988281 331.644531 68.789062 331.910156 68.613281 C 332.171875 68.433594 332.453125 68.285156 332.746094 68.164062 C 333.039062 68.042969 333.339844 67.949219 333.652344 67.886719 C 333.964844 67.824219 334.28125 67.792969 334.597656 67.792969 Z M 114.347656 38.824219 C 114.03125 38.824219 113.714844 38.792969 113.402344 38.730469 C 113.089844 38.671875 112.785156 38.578125 112.492188 38.457031 C 112.199219 38.335938 111.917969 38.1875 111.652344 38.011719 C 111.386719 37.835938 111.144531 37.632812 110.917969 37.410156 C 110.691406 37.183594 110.492188 36.941406 110.3125 36.675781 C 110.136719 36.410156 109.988281 36.132812 109.863281 35.835938 C 109.742188 35.542969 109.648438 35.242188 109.585938 34.929688 C 109.523438 34.617188 109.492188 34.300781 109.492188 33.984375 C 109.492188 33.664062 109.523438 33.347656 109.585938 33.035156 C 109.648438 32.722656 109.738281 32.421875 109.863281 32.125 C 109.984375 31.832031 110.132812 31.554688 110.308594 31.289062 C 110.488281 31.023438 110.6875 30.777344 110.914062 30.554688 C 111.136719 30.328125 111.382812 30.128906 111.648438 29.949219 C 111.910156 29.773438 112.191406 29.625 112.484375 29.503906 C 112.78125 29.382812 113.082031 29.289062 113.394531 29.226562 C 113.707031 29.164062 114.023438 29.136719 114.339844 29.136719 C 114.660156 29.136719 114.976562 29.167969 115.285156 29.230469 C 115.597656 29.292969 115.902344 29.382812 116.195312 29.507812 C 116.492188 29.628906 116.769531 29.777344 117.035156 29.957031 C 117.296875 30.132812 117.542969 30.332031 117.769531 30.558594 C 117.992188 30.785156 118.191406 31.03125 118.371094 31.296875 C 118.546875 31.558594 118.695312 31.839844 118.816406 32.132812 C 118.9375 32.429688 119.027344 32.730469 119.089844 33.042969 C 119.152344 33.355469 119.183594 33.671875 119.179688 33.992188 C 119.179688 34.308594 119.148438 34.621094 119.085938 34.933594 C 119.023438 35.242188 118.933594 35.542969 118.808594 35.835938 C 118.6875 36.128906 118.539062 36.410156 118.363281 36.671875 C 118.1875 36.9375 117.988281 37.179688 117.761719 37.402344 C 117.539062 37.628906 117.292969 37.828125 117.03125 38.003906 C 116.765625 38.179688 116.488281 38.328125 116.195312 38.453125 C 115.902344 38.574219 115.601562 38.664062 115.289062 38.726562 C 114.980469 38.789062 114.664062 38.820312 114.347656 38.824219 Z M 34.335938 108.640625 C 34.652344 108.640625 34.96875 108.671875 35.277344 108.734375 C 35.589844 108.796875 35.890625 108.886719 36.183594 109.007812 C 36.480469 109.128906 36.757812 109.277344 37.019531 109.453125 C 37.285156 109.632812 37.527344 109.832031 37.753906 110.054688 C 37.976562 110.28125 38.175781 110.523438 38.355469 110.789062 C 38.53125 111.050781 38.679688 111.332031 38.800781 111.625 C 38.921875 111.917969 39.011719 112.21875 39.074219 112.53125 C 39.136719 112.839844 39.167969 113.15625 39.167969 113.472656 C 39.167969 113.789062 39.136719 114.105469 39.074219 114.414062 C 39.011719 114.726562 38.921875 115.027344 38.800781 115.320312 C 38.679688 115.613281 38.53125 115.894531 38.355469 116.15625 C 38.175781 116.421875 37.976562 116.664062 37.753906 116.890625 C 37.527344 117.113281 37.285156 117.3125 37.019531 117.488281 C 36.757812 117.667969 36.480469 117.816406 36.183594 117.9375 C 35.890625 118.058594 35.589844 118.148438 35.277344 118.210938 C 34.96875 118.273438 34.652344 118.304688 34.335938 118.304688 C 34.019531 118.304688 33.703125 118.273438 33.394531 118.210938 C 33.082031 118.148438 32.78125 118.058594 32.488281 117.9375 C 32.195312 117.816406 31.914062 117.667969 31.652344 117.488281 C 31.386719 117.3125 31.144531 117.113281 30.917969 116.890625 C 30.695312 116.664062 30.496094 116.421875 30.320312 116.15625 C 30.140625 115.894531 29.992188 115.613281 29.871094 115.320312 C 29.75 115.027344 29.660156 114.726562 29.597656 114.414062 C 29.535156 114.105469 29.503906 113.789062 29.503906 113.472656 C 29.503906 113.15625 29.535156 112.839844 29.597656 112.53125 C 29.660156 112.21875 29.75 111.917969 29.871094 111.625 C 29.992188 111.332031 30.140625 111.050781 30.320312 110.789062 C 30.496094 110.523438 30.695312 110.28125 30.917969 110.054688 C 31.144531 109.832031 31.386719 109.632812 31.652344 109.453125 C 31.914062 109.277344 32.195312 109.128906 32.488281 109.007812 C 32.78125 108.886719 33.082031 108.796875 33.394531 108.734375 C 33.703125 108.671875 34.019531 108.640625 34.335938 108.640625 Z M 49.6875 322.707031 C 49.367188 322.707031 49.050781 322.675781 48.738281 322.617188 C 48.425781 322.554688 48.125 322.464844 47.828125 322.34375 C 47.535156 322.222656 47.253906 322.070312 46.992188 321.894531 C 46.726562 321.71875 46.480469 321.519531 46.253906 321.292969 C 46.03125 321.070312 45.828125 320.824219 45.652344 320.558594 C 45.472656 320.296875 45.324219 320.015625 45.203125 319.722656 C 45.078125 319.429688 44.988281 319.125 44.925781 318.8125 C 44.863281 318.5 44.832031 318.1875 44.832031 317.867188 C 44.832031 317.550781 44.863281 317.234375 44.921875 316.921875 C 44.984375 316.609375 45.078125 316.304688 45.199219 316.011719 C 45.320312 315.71875 45.46875 315.4375 45.648438 315.171875 C 45.824219 314.910156 46.023438 314.664062 46.25 314.4375 C 46.476562 314.214844 46.71875 314.011719 46.984375 313.835938 C 47.25 313.660156 47.527344 313.507812 47.824219 313.386719 C 48.117188 313.265625 48.421875 313.175781 48.730469 313.113281 C 49.042969 313.050781 49.359375 313.019531 49.679688 313.019531 C 49.996094 313.019531 50.3125 313.050781 50.625 313.113281 C 50.9375 313.175781 51.238281 313.269531 51.535156 313.390625 C 51.828125 313.511719 52.105469 313.664062 52.371094 313.839844 C 52.636719 314.015625 52.878906 314.21875 53.105469 314.445312 C 53.328125 314.667969 53.53125 314.914062 53.707031 315.179688 C 53.882812 315.445312 54.03125 315.722656 54.152344 316.019531 C 54.273438 316.3125 54.367188 316.617188 54.425781 316.929688 C 54.488281 317.242188 54.519531 317.558594 54.519531 317.875 C 54.519531 318.191406 54.488281 318.507812 54.425781 318.816406 C 54.363281 319.128906 54.273438 319.429688 54.148438 319.722656 C 54.027344 320.015625 53.878906 320.296875 53.703125 320.558594 C 53.527344 320.824219 53.328125 321.066406 53.101562 321.292969 C 52.878906 321.515625 52.632812 321.714844 52.371094 321.894531 C 52.105469 322.070312 51.828125 322.21875 51.535156 322.339844 C 51.242188 322.460938 50.941406 322.550781 50.628906 322.613281 C 50.316406 322.675781 50.003906 322.707031 49.6875 322.707031 Z M 299.585938 330.847656 C 299.902344 330.847656 300.21875 330.878906 300.53125 330.941406 C 300.84375 331 301.144531 331.09375 301.441406 331.214844 C 301.734375 331.335938 302.015625 331.484375 302.28125 331.660156 C 302.542969 331.835938 302.789062 332.039062 303.015625 332.261719 C 303.242188 332.488281 303.441406 332.730469 303.621094 332.996094 C 303.796875 333.261719 303.945312 333.539062 304.070312 333.832031 C 304.191406 334.128906 304.285156 334.429688 304.34375 334.742188 C 304.40625 335.054688 304.4375 335.371094 304.441406 335.6875 C 304.441406 336.007812 304.410156 336.324219 304.347656 336.636719 C 304.285156 336.945312 304.195312 337.25 304.070312 337.542969 C 303.949219 337.839844 303.800781 338.117188 303.625 338.382812 C 303.445312 338.648438 303.246094 338.894531 303.019531 339.117188 C 302.796875 339.34375 302.550781 339.542969 302.285156 339.722656 C 302.023438 339.898438 301.742188 340.046875 301.449219 340.167969 C 301.152344 340.289062 300.851562 340.382812 300.539062 340.445312 C 300.226562 340.507812 299.910156 340.535156 299.59375 340.535156 C 299.273438 340.535156 298.957031 340.503906 298.644531 340.441406 C 298.335938 340.378906 298.03125 340.289062 297.738281 340.164062 C 297.441406 340.042969 297.164062 339.894531 296.898438 339.714844 C 296.636719 339.539062 296.390625 339.335938 296.164062 339.113281 C 295.941406 338.886719 295.742188 338.640625 295.5625 338.375 C 295.386719 338.113281 295.238281 337.832031 295.117188 337.539062 C 294.996094 337.242188 294.90625 336.941406 294.84375 336.628906 C 294.78125 336.316406 294.75 336 294.753906 335.679688 C 294.753906 335.363281 294.785156 335.050781 294.847656 334.738281 C 294.910156 334.429688 295 334.125 295.125 333.832031 C 295.246094 333.542969 295.394531 333.261719 295.570312 333 C 295.746094 332.734375 295.945312 332.492188 296.171875 332.269531 C 296.394531 332.042969 296.640625 331.84375 296.902344 331.667969 C 297.167969 331.492188 297.445312 331.339844 297.738281 331.21875 C 298.03125 331.097656 298.332031 331.007812 298.640625 330.945312 C 298.953125 330.882812 299.265625 330.851562 299.585938 330.847656 Z M 184.257812 303.042969 C 182.324219 303.042969 180.390625 302.996094 178.457031 302.902344 C 176.527344 302.808594 174.597656 302.664062 172.671875 302.476562 C 170.746094 302.285156 168.828125 302.046875 166.914062 301.765625 C 165 301.480469 163.09375 301.148438 161.199219 300.773438 C 159.300781 300.394531 157.414062 299.972656 155.535156 299.5 C 153.660156 299.03125 151.796875 298.515625 149.945312 297.953125 C 148.09375 297.394531 146.257812 296.785156 144.4375 296.132812 C 142.613281 295.484375 140.808594 294.785156 139.023438 294.046875 C 137.234375 293.304688 135.46875 292.523438 133.71875 291.695312 C 131.96875 290.867188 130.242188 290 128.535156 289.085938 C 126.828125 288.175781 125.148438 287.222656 123.488281 286.226562 C 121.828125 285.230469 120.195312 284.199219 118.585938 283.121094 C 116.976562 282.046875 115.394531 280.933594 113.84375 279.78125 C 112.289062 278.628906 110.765625 277.4375 109.269531 276.210938 C 107.773438 274.984375 106.308594 273.722656 104.875 272.421875 C 103.441406 271.125 102.042969 269.789062 100.671875 268.421875 C 99.304688 267.054688 97.972656 265.652344 96.671875 264.21875 C 95.375 262.785156 94.109375 261.320312 92.882812 259.828125 C 91.65625 258.332031 90.464844 256.804688 89.3125 255.253906 C 88.160156 253.699219 87.046875 252.117188 85.972656 250.507812 C 84.898438 248.898438 83.863281 247.265625 82.867188 245.605469 C 81.875 243.949219 80.921875 242.265625 80.007812 240.558594 C 79.097656 238.851562 78.226562 237.125 77.398438 235.375 C 76.574219 233.628906 75.789062 231.859375 75.046875 230.070312 C 74.308594 228.285156 73.613281 226.480469 72.960938 224.660156 C 72.308594 222.835938 71.703125 221 71.140625 219.148438 C 70.578125 217.296875 70.0625 215.433594 69.59375 213.558594 C 69.125 211.679688 68.699219 209.792969 68.320312 207.898438 C 67.945312 206 67.613281 204.09375 67.332031 202.179688 C 67.046875 200.265625 66.808594 198.347656 66.621094 196.421875 C 66.429688 194.496094 66.289062 192.566406 66.191406 190.636719 C 66.097656 188.703125 66.050781 186.769531 66.050781 184.835938 C 66.050781 182.902344 66.097656 180.96875 66.191406 179.035156 C 66.289062 177.101562 66.429688 175.175781 66.621094 173.25 C 66.808594 171.324219 67.046875 169.40625 67.332031 167.492188 C 67.613281 165.578125 67.945312 163.671875 68.320312 161.773438 C 68.699219 159.878906 69.125 157.988281 69.59375 156.113281 C 70.0625 154.238281 70.578125 152.371094 71.140625 150.523438 C 71.703125 148.671875 72.308594 146.835938 72.960938 145.011719 C 73.613281 143.191406 74.308594 141.386719 75.046875 139.597656 C 75.789062 137.8125 76.574219 136.042969 77.398438 134.296875 C 78.226562 132.546875 79.097656 130.820312 80.007812 129.113281 C 80.921875 127.40625 81.875 125.722656 82.867188 124.066406 C 83.863281 122.40625 84.898438 120.769531 85.972656 119.164062 C 87.046875 117.554688 88.160156 115.972656 89.3125 114.417969 C 90.464844 112.863281 91.65625 111.339844 92.882812 109.84375 C 94.109375 108.351562 95.375 106.886719 96.671875 105.453125 C 97.972656 104.019531 99.304688 102.617188 100.671875 101.25 C 102.042969 99.882812 103.441406 98.546875 104.875 97.25 C 106.308594 95.949219 107.773438 94.6875 109.269531 93.460938 C 110.765625 92.230469 112.289062 91.042969 113.84375 89.890625 C 115.394531 88.738281 116.976562 87.625 118.585938 86.550781 C 120.195312 85.472656 121.828125 84.441406 123.488281 83.445312 C 125.148438 82.449219 126.828125 81.496094 128.535156 80.585938 C 130.242188 79.671875 131.96875 78.804688 133.71875 77.976562 C 135.46875 77.148438 137.234375 76.367188 139.023438 75.625 C 140.808594 74.886719 142.613281 74.1875 144.4375 73.539062 C 146.257812 72.886719 148.09375 72.277344 149.945312 71.71875 C 151.796875 71.15625 153.660156 70.640625 155.535156 70.167969 C 157.414062 69.699219 159.300781 69.277344 161.199219 68.898438 C 163.09375 68.519531 165 68.191406 166.914062 67.90625 C 168.828125 67.621094 170.746094 67.386719 172.671875 67.195312 C 174.597656 67.007812 176.527344 66.863281 178.457031 66.769531 C 180.390625 66.675781 182.324219 66.628906 184.257812 66.628906 C 186.195312 66.628906 188.128906 66.675781 190.058594 66.769531 C 191.992188 66.863281 193.921875 67.007812 195.84375 67.195312 C 197.769531 67.386719 199.691406 67.621094 201.605469 67.90625 C 203.515625 68.191406 205.421875 68.519531 207.320312 68.898438 C 209.21875 69.277344 211.105469 69.699219 212.980469 70.167969 C 214.859375 70.640625 216.722656 71.15625 218.574219 71.71875 C 220.425781 72.277344 222.261719 72.886719 224.082031 73.539062 C 225.902344 74.1875 227.707031 74.886719 229.496094 75.625 C 231.28125 76.367188 233.050781 77.148438 234.800781 77.976562 C 236.546875 78.804688 238.277344 79.671875 239.980469 80.585938 C 241.6875 81.496094 243.371094 82.449219 245.03125 83.445312 C 246.691406 84.441406 248.324219 85.472656 249.933594 86.550781 C 251.539062 87.625 253.121094 88.738281 254.675781 89.890625 C 256.230469 91.042969 257.753906 92.230469 259.25 93.460938 C 260.746094 94.6875 262.210938 95.949219 263.644531 97.25 C 265.078125 98.546875 266.476562 99.882812 267.84375 101.25 C 269.214844 102.617188 270.546875 104.019531 271.847656 105.453125 C 273.144531 106.886719 274.410156 108.351562 275.636719 109.84375 C 276.863281 111.339844 278.050781 112.863281 279.203125 114.417969 C 280.359375 115.972656 281.472656 117.554688 282.546875 119.164062 C 283.621094 120.769531 284.65625 122.40625 285.648438 124.066406 C 286.644531 125.722656 287.597656 127.40625 288.507812 129.113281 C 289.421875 130.820312 290.292969 132.546875 291.117188 134.296875 C 291.945312 136.042969 292.730469 137.8125 293.46875 139.597656 C 294.210938 141.386719 294.90625 143.191406 295.558594 145.011719 C 296.210938 146.835938 296.816406 148.671875 297.378906 150.523438 C 297.9375 152.371094 298.453125 154.238281 298.925781 156.113281 C 299.394531 157.988281 299.820312 159.878906 300.195312 161.773438 C 300.574219 163.671875 300.90625 165.578125 301.1875 167.492188 C 301.472656 169.40625 301.707031 171.324219 301.898438 173.25 C 302.089844 175.175781 302.230469 177.101562 302.324219 179.035156 C 302.421875 180.96875 302.46875 182.902344 302.46875 184.835938 C 302.464844 186.769531 302.417969 188.703125 302.320312 190.632812 C 302.222656 192.566406 302.078125 194.492188 301.886719 196.417969 C 301.695312 198.34375 301.457031 200.261719 301.171875 202.175781 C 300.886719 204.085938 300.554688 205.992188 300.175781 207.886719 C 299.796875 209.785156 299.371094 211.671875 298.898438 213.546875 C 298.429688 215.421875 297.910156 217.285156 297.347656 219.136719 C 296.785156 220.984375 296.179688 222.820312 295.527344 224.640625 C 294.875 226.460938 294.175781 228.265625 293.4375 230.050781 C 292.695312 231.839844 291.910156 233.605469 291.082031 235.355469 C 290.253906 237.101562 289.382812 238.828125 288.472656 240.535156 C 287.558594 242.238281 286.605469 243.921875 285.613281 245.578125 C 284.617188 247.238281 283.582031 248.871094 282.507812 250.480469 C 281.433594 252.085938 280.320312 253.667969 279.167969 255.21875 C 278.011719 256.773438 276.824219 258.296875 275.597656 259.792969 C 274.371094 261.289062 273.105469 262.75 271.808594 264.183594 C 270.507812 265.617188 269.175781 267.015625 267.808594 268.382812 C 266.441406 269.753906 265.039062 271.085938 263.605469 272.382812 C 262.175781 273.683594 260.710938 274.945312 259.214844 276.171875 C 257.722656 277.402344 256.195312 278.589844 254.644531 279.742188 C 253.089844 280.894531 251.511719 282.007812 249.902344 283.082031 C 248.292969 284.160156 246.660156 285.191406 245.003906 286.1875 C 243.34375 287.183594 241.664062 288.136719 239.957031 289.050781 C 238.253906 289.960938 236.523438 290.832031 234.777344 291.660156 C 233.03125 292.488281 231.261719 293.269531 229.476562 294.011719 C 227.691406 294.753906 225.886719 295.449219 224.066406 296.101562 C 222.246094 296.753906 220.410156 297.363281 218.558594 297.925781 C 216.707031 298.488281 214.847656 299.003906 212.96875 299.476562 C 211.09375 299.949219 209.207031 300.375 207.3125 300.75 C 205.414062 301.128906 203.511719 301.464844 201.597656 301.75 C 199.683594 302.035156 197.765625 302.273438 195.839844 302.464844 C 193.917969 302.65625 191.988281 302.800781 190.058594 302.894531 C 188.125 302.992188 186.191406 303.042969 184.257812 303.042969 Z M 331.507812 276.195312 C 331.1875 276.195312 330.875 276.164062 330.5625 276.101562 C 330.25 276.039062 329.949219 275.945312 329.65625 275.824219 C 329.359375 275.703125 329.082031 275.554688 328.816406 275.375 C 328.554688 275.199219 328.308594 275 328.085938 274.773438 C 327.859375 274.550781 327.660156 274.304688 327.484375 274.042969 C 327.304688 273.777344 327.15625 273.5 327.035156 273.203125 C 326.914062 272.910156 326.820312 272.609375 326.757812 272.296875 C 326.695312 271.984375 326.664062 271.671875 326.664062 271.351562 C 326.667969 270.78125 326.773438 270.226562 326.976562 269.691406 C 327.183594 269.15625 327.472656 268.671875 327.851562 268.242188 C 328.226562 267.8125 328.667969 267.460938 329.171875 267.1875 C 329.675781 266.914062 330.210938 266.738281 330.78125 266.660156 C 331.265625 266.851562 331.75 266.851562 332.234375 266.660156 C 332.800781 266.738281 333.335938 266.914062 333.839844 267.1875 C 334.34375 267.460938 334.785156 267.8125 335.164062 268.242188 C 335.539062 268.671875 335.832031 269.15625 336.035156 269.691406 C 336.238281 270.226562 336.34375 270.78125 336.351562 271.351562 C 336.347656 271.671875 336.316406 271.984375 336.253906 272.296875 C 336.191406 272.609375 336.101562 272.910156 335.976562 273.203125 C 335.855469 273.5 335.707031 273.777344 335.53125 274.042969 C 335.355469 274.304688 335.152344 274.550781 334.929688 274.773438 C 334.703125 275 334.457031 275.199219 334.195312 275.375 C 333.929688 275.554688 333.652344 275.703125 333.359375 275.824219 C 333.066406 275.945312 332.761719 276.039062 332.449219 276.101562 C 332.140625 276.164062 331.824219 276.195312 331.507812 276.195312 Z M 331.507812 276.195312 " fill-opacity="1" fill-rule="nonzero"/></svg>