<svg xmlns="http://www.w3.org/2000/svg" xmlns:xlink="http://www.w3.org/1999/xlink" width="500" zoomAndPan="magnify" viewBox="0 0 375 374.999991" height="500" preserveAspectRatio="xMidYMid meet" version="1.0"><defs><clipPath id="1a3f273fe3"><path d="M 23.4375 23.4375 L 131 23.4375 L 131 115 L 23.4375 115 Z M 23.4375 23.4375 " clip-rule="nonzero"/></clipPath><clipPath id="25282dc859"><path d="M 247 23.4375 L 354.1875 23.4375 L 354.1875 115 L 247 115 Z M 247 23.4375 " clip-rule="nonzero"/></clipPath><clipPath id="16e5795ee4"><path d="M 23.4375 263 L 131 263 L 131 354.1875 L 23.4375 354.1875 Z M 23.4375 263 " clip-rule="nonzero"/></clipPath><clipPath id="41e6446093"><path d="M 247 263 L 354.1875 263 L 354.1875 354.1875 L 247 354.1875 Z M 247 263 " clip-rule="nonzero"/></clipPath></defs><path fill="#0c2c57" d="M 145.0625 184.46875 C 145.066406 186.347656 145.1875 188.21875 145.433594 190.082031 C 145.679688 191.945312 146.042969 193.78125 146.523438 195.597656 C 147.007812 197.414062 147.605469 199.191406 148.320312 200.925781 C 149.03125 202.664062 149.855469 204.351562 150.785156 205.980469 C 151.71875 207.613281 152.75 209.175781 153.882812 210.675781 C 155.019531 212.171875 156.242188 213.589844 157.5625 214.929688 C 158.878906 216.265625 160.277344 217.515625 161.757812 218.671875 C 163.238281 219.828125 164.785156 220.886719 166.402344 221.84375 L 166.402344 240.019531 C 166.402344 240.75 166.4375 241.484375 166.507812 242.214844 C 166.578125 242.945312 166.6875 243.671875 166.828125 244.390625 C 166.972656 245.109375 167.148438 245.824219 167.363281 246.523438 C 167.574219 247.226562 167.820312 247.917969 168.101562 248.597656 C 168.382812 249.273438 168.695312 249.9375 169.042969 250.585938 C 169.386719 251.234375 169.765625 251.863281 170.171875 252.472656 C 170.578125 253.082031 171.015625 253.671875 171.480469 254.238281 C 171.949219 254.808594 172.441406 255.351562 172.957031 255.871094 C 173.476562 256.390625 174.019531 256.882812 174.589844 257.347656 C 175.15625 257.8125 175.742188 258.25 176.355469 258.660156 C 176.964844 259.066406 177.59375 259.445312 178.242188 259.789062 C 178.886719 260.136719 179.550781 260.449219 180.230469 260.730469 C 180.90625 261.011719 181.597656 261.257812 182.300781 261.472656 C 183.003906 261.6875 183.714844 261.863281 184.433594 262.007812 C 185.152344 262.152344 185.878906 262.257812 186.609375 262.328125 C 187.339844 262.402344 188.074219 262.4375 188.804688 262.4375 C 189.539062 262.4375 190.273438 262.402344 191.003906 262.328125 C 191.734375 262.257812 192.460938 262.152344 193.179688 262.007812 C 193.898438 261.863281 194.609375 261.6875 195.3125 261.472656 C 196.015625 261.257812 196.707031 261.011719 197.382812 260.730469 C 198.0625 260.449219 198.726562 260.136719 199.371094 259.789062 C 200.019531 259.445312 200.648438 259.066406 201.257812 258.660156 C 201.871094 258.25 202.457031 257.8125 203.023438 257.347656 C 203.59375 256.882812 204.136719 256.390625 204.65625 255.871094 C 205.171875 255.351562 205.664062 254.808594 206.132812 254.238281 C 206.597656 253.671875 207.035156 253.082031 207.441406 252.472656 C 207.847656 251.863281 208.226562 251.234375 208.570312 250.585938 C 208.917969 249.9375 209.230469 249.273438 209.511719 248.597656 C 209.792969 247.917969 210.039062 247.226562 210.25 246.523438 C 210.464844 245.824219 210.640625 245.109375 210.785156 244.390625 C 210.925781 243.671875 211.035156 242.945312 211.105469 242.214844 C 211.175781 241.484375 211.210938 240.75 211.210938 240.019531 L 211.210938 221.84375 C 212.242188 221.226562 213.242188 220.570312 214.21875 219.871094 C 215.195312 219.171875 216.136719 218.433594 217.054688 217.65625 C 217.96875 216.882812 218.847656 216.070312 219.695312 215.21875 C 220.542969 214.371094 221.355469 213.488281 222.132812 212.574219 C 222.90625 211.65625 223.640625 210.710938 224.339844 209.734375 C 225.035156 208.757812 225.691406 207.753906 226.308594 206.722656 C 226.921875 205.695312 227.492188 204.640625 228.019531 203.5625 C 228.550781 202.484375 229.03125 201.386719 229.46875 200.269531 C 229.90625 199.15625 230.300781 198.019531 230.644531 196.871094 C 230.988281 195.722656 231.285156 194.5625 231.535156 193.386719 C 231.78125 192.214844 231.984375 191.03125 232.132812 189.84375 C 232.285156 188.652344 232.386719 187.457031 232.441406 186.257812 C 232.496094 185.058594 232.5 183.863281 232.453125 182.664062 C 232.410156 181.464844 232.316406 180.269531 232.171875 179.078125 C 232.027344 177.886719 231.835938 176.703125 231.59375 175.527344 C 231.351562 174.351562 231.066406 173.1875 230.726562 172.039062 C 230.390625 170.886719 230.007812 169.75 229.578125 168.628906 C 229.148438 167.511719 228.671875 166.410156 228.152344 165.328125 C 227.632812 164.25 227.066406 163.191406 226.460938 162.15625 C 225.851562 161.121094 225.203125 160.113281 224.511719 159.132812 C 223.820312 158.152344 223.089844 157.199219 222.324219 156.28125 C 221.554688 155.359375 220.75 154.472656 219.90625 153.617188 C 219.066406 152.761719 218.1875 151.941406 217.28125 151.160156 C 216.371094 150.378906 215.429688 149.632812 214.460938 148.929688 C 213.488281 148.222656 212.492188 147.558594 211.464844 146.933594 C 210.441406 146.3125 209.390625 145.730469 208.320312 145.195312 C 207.246094 144.65625 206.152344 144.164062 205.039062 143.71875 C 203.925781 143.273438 202.796875 142.871094 201.652344 142.515625 C 200.503906 142.164062 199.34375 141.855469 198.171875 141.597656 C 197.003906 141.339844 195.820312 141.128906 194.632812 140.96875 C 193.445312 140.804688 192.25 140.695312 191.054688 140.628906 C 189.855469 140.566406 188.65625 140.554688 187.457031 140.589844 C 186.050781 140.640625 184.652344 140.757812 183.261719 140.945312 C 181.867188 141.132812 180.488281 141.382812 179.117188 141.703125 C 177.75 142.019531 176.398438 142.402344 175.066406 142.851562 C 173.734375 143.296875 172.425781 143.808594 171.140625 144.378906 C 169.859375 144.953125 168.605469 145.585938 167.382812 146.277344 C 166.160156 146.972656 164.972656 147.722656 163.820312 148.527344 C 162.671875 149.335938 161.5625 150.195312 160.492188 151.105469 C 159.421875 152.019531 158.402344 152.980469 157.425781 153.992188 C 156.449219 155.003906 155.523438 156.058594 154.648438 157.160156 C 153.769531 158.257812 152.949219 159.398438 152.183594 160.574219 C 151.417969 161.753906 150.710938 162.964844 150.058594 164.210938 C 149.410156 165.457031 148.820312 166.730469 148.292969 168.035156 C 147.761719 169.335938 147.296875 170.660156 146.898438 172.007812 C 146.496094 173.355469 146.160156 174.71875 145.886719 176.097656 C 145.617188 177.476562 145.414062 178.863281 145.277344 180.261719 C 145.136719 181.664062 145.066406 183.0625 145.0625 184.46875 Z M 200.542969 240.019531 C 200.542969 240.789062 200.46875 241.550781 200.320312 242.308594 C 200.167969 243.066406 199.945312 243.800781 199.652344 244.511719 C 199.359375 245.226562 198.996094 245.902344 198.570312 246.542969 C 198.140625 247.183594 197.652344 247.777344 197.109375 248.324219 C 196.5625 248.871094 195.972656 249.355469 195.332031 249.785156 C 194.6875 250.214844 194.011719 250.574219 193.300781 250.871094 C 192.589844 251.164062 191.855469 251.390625 191.097656 251.539062 C 190.339844 251.691406 189.578125 251.765625 188.804688 251.765625 C 188.035156 251.765625 187.273438 251.691406 186.515625 251.539062 C 185.757812 251.390625 185.023438 251.164062 184.3125 250.871094 C 183.601562 250.574219 182.925781 250.214844 182.28125 249.785156 C 181.640625 249.355469 181.050781 248.871094 180.503906 248.324219 C 179.960938 247.777344 179.472656 247.183594 179.042969 246.542969 C 178.617188 245.902344 178.253906 245.226562 177.960938 244.511719 C 177.667969 243.800781 177.445312 243.066406 177.292969 242.308594 C 177.144531 241.550781 177.070312 240.789062 177.070312 240.019531 L 177.070312 233.535156 L 200.542969 233.535156 Z M 187.78125 151.25 C 188.125 151.25 188.46875 151.25 188.804688 151.25 C 189.730469 151.253906 190.652344 151.292969 191.570312 151.375 C 192.488281 151.453125 193.402344 151.570312 194.3125 151.726562 C 195.222656 151.878906 196.125 152.074219 197.019531 152.304688 C 197.910156 152.535156 198.792969 152.804688 199.664062 153.109375 C 200.535156 153.414062 201.390625 153.753906 202.234375 154.128906 C 203.078125 154.507812 203.902344 154.917969 204.710938 155.363281 C 205.519531 155.808594 206.304688 156.289062 207.074219 156.800781 C 207.84375 157.308594 208.585938 157.851562 209.308594 158.425781 C 210.03125 159 210.730469 159.605469 211.402344 160.238281 C 212.074219 160.867188 212.71875 161.527344 213.335938 162.214844 C 213.953125 162.902344 214.539062 163.609375 215.097656 164.347656 C 215.65625 165.082031 216.179688 165.839844 216.675781 166.617188 C 217.167969 167.398438 217.628906 168.195312 218.054688 169.015625 C 218.484375 169.832031 218.875 170.667969 219.234375 171.519531 C 219.589844 172.367188 219.910156 173.234375 220.195312 174.109375 C 220.480469 174.988281 220.730469 175.875 220.941406 176.773438 C 221.152344 177.671875 221.324219 178.578125 221.457031 179.492188 C 221.59375 180.402344 221.691406 181.320312 221.746094 182.242188 C 221.804688 183.164062 221.824219 184.085938 221.804688 185.007812 C 221.789062 185.929688 221.730469 186.851562 221.632812 187.769531 C 221.539062 188.683594 221.402344 189.597656 221.230469 190.503906 C 221.058594 191.410156 220.847656 192.308594 220.601562 193.195312 C 220.355469 194.085938 220.070312 194.964844 219.75 195.828125 C 219.425781 196.695312 219.070312 197.542969 218.679688 198.378906 C 218.285156 199.214844 217.859375 200.03125 217.398438 200.832031 C 216.941406 201.632812 216.445312 202.410156 215.921875 203.167969 C 215.394531 203.925781 214.839844 204.660156 214.25 205.375 C 213.664062 206.085938 213.046875 206.769531 212.402344 207.433594 C 211.757812 208.09375 211.085938 208.722656 210.390625 209.328125 C 209.691406 209.933594 208.972656 210.507812 208.226562 211.050781 C 207.480469 211.59375 206.710938 212.105469 205.925781 212.585938 C 205.136719 213.0625 204.328125 213.507812 203.503906 213.921875 C 203.058594 214.144531 202.648438 214.421875 202.28125 214.757812 C 201.914062 215.09375 201.597656 215.472656 201.335938 215.898438 C 201.074219 216.324219 200.875 216.773438 200.742188 217.253906 C 200.605469 217.734375 200.539062 218.222656 200.542969 218.722656 L 200.542969 222.910156 L 177.070312 222.910156 L 177.070312 218.679688 C 177.074219 218.179688 177.007812 217.691406 176.871094 217.210938 C 176.738281 216.730469 176.539062 216.28125 176.277344 215.855469 C 176.015625 215.433594 175.699219 215.050781 175.332031 214.714844 C 174.964844 214.378906 174.554688 214.101562 174.109375 213.878906 C 172.742188 213.203125 171.425781 212.4375 170.164062 211.582031 C 168.902344 210.726562 167.703125 209.785156 166.574219 208.761719 C 165.441406 207.738281 164.386719 206.640625 163.40625 205.472656 C 162.425781 204.300781 161.535156 203.066406 160.726562 201.773438 C 159.917969 200.480469 159.203125 199.136719 158.582031 197.742188 C 157.960938 196.347656 157.441406 194.917969 157.019531 193.453125 C 156.597656 191.984375 156.277344 190.496094 156.0625 188.988281 C 155.847656 187.476562 155.738281 185.957031 155.734375 184.433594 C 155.746094 183.375 155.8125 182.316406 155.925781 181.265625 C 156.042969 180.210938 156.207031 179.164062 156.417969 178.128906 C 156.632812 177.089844 156.894531 176.066406 157.203125 175.050781 C 157.511719 174.039062 157.871094 173.042969 158.273438 172.0625 C 158.679688 171.085938 159.125 170.125 159.621094 169.1875 C 160.117188 168.25 160.652344 167.339844 161.234375 166.453125 C 161.8125 165.566406 162.433594 164.710938 163.09375 163.882812 C 163.753906 163.054688 164.453125 162.261719 165.191406 161.5 C 165.925781 160.734375 166.695312 160.011719 167.5 159.320312 C 168.304688 158.632812 169.140625 157.980469 170.003906 157.371094 C 170.871094 156.761719 171.761719 156.191406 172.683594 155.667969 C 173.601562 155.140625 174.542969 154.65625 175.507812 154.21875 C 176.472656 153.78125 177.457031 153.390625 178.457031 153.046875 C 179.460938 152.703125 180.476562 152.40625 181.503906 152.15625 C 182.535156 151.90625 183.574219 151.707031 184.621094 151.554688 C 185.671875 151.40625 186.722656 151.304688 187.78125 151.25 Z M 187.78125 151.25 " fill-opacity="1" fill-rule="nonzero"/><path fill="#0c2c57" d="M 183.472656 120.523438 L 194.140625 120.523438 L 194.140625 133.328125 L 183.472656 133.328125 Z M 183.472656 120.523438 " fill-opacity="1" fill-rule="nonzero"/><path fill="#0c2c57" d="M 124.792969 179.203125 L 137.59375 179.203125 L 137.59375 189.875 L 124.792969 189.875 Z M 124.792969 179.203125 " fill-opacity="1" fill-rule="nonzero"/><path fill="#0c2c57" d="M 240.019531 179.203125 L 252.820312 179.203125 L 252.820312 189.875 L 240.019531 189.875 Z M 240.019531 179.203125 " fill-opacity="1" fill-rule="nonzero"/><path fill="#0c2c57" d="M 139.769531 143.046875 L 147.3125 135.5 L 156.367188 144.554688 L 148.820312 152.097656 Z M 139.769531 143.046875 " fill-opacity="1" fill-rule="nonzero"/><path fill="#0c2c57" d="M 221.25 224.519531 L 228.792969 216.976562 L 237.847656 226.027344 L 230.300781 233.570312 Z M 221.25 224.519531 " fill-opacity="1" fill-rule="nonzero"/><path fill="#0c2c57" d="M 139.773438 226.03125 L 148.828125 216.980469 L 156.371094 224.523438 L 147.316406 233.574219 Z M 139.773438 226.03125 " fill-opacity="1" fill-rule="nonzero"/><path fill="#0c2c57" d="M 221.246094 144.550781 L 230.300781 135.496094 L 237.84375 143.042969 L 228.789062 152.09375 Z M 221.246094 144.550781 " fill-opacity="1" fill-rule="nonzero"/><g clip-path="url(#1a3f273fe3)"><path fill="#0c2c57" d="M 39.441406 114.125 L 114.125 114.125 C 114.648438 114.125 115.171875 114.097656 115.691406 114.046875 C 116.214844 113.996094 116.730469 113.917969 117.246094 113.816406 C 117.761719 113.714844 118.269531 113.585938 118.769531 113.433594 C 119.269531 113.28125 119.765625 113.105469 120.246094 112.90625 C 120.730469 112.703125 121.207031 112.480469 121.667969 112.234375 C 122.128906 111.988281 122.578125 111.71875 123.015625 111.425781 C 123.449219 111.136719 123.871094 110.824219 124.277344 110.492188 C 124.679688 110.160156 125.070312 109.808594 125.441406 109.4375 C 125.8125 109.066406 126.164062 108.679688 126.496094 108.273438 C 126.828125 107.867188 127.140625 107.445312 127.429688 107.011719 C 127.722656 106.574219 127.992188 106.125 128.238281 105.664062 C 128.484375 105.203125 128.707031 104.730469 128.910156 104.246094 C 129.109375 103.761719 129.285156 103.265625 129.4375 102.765625 C 129.589844 102.265625 129.71875 101.757812 129.820312 101.242188 C 129.921875 100.726562 130 100.210938 130.050781 99.6875 C 130.101562 99.167969 130.128906 98.644531 130.128906 98.121094 L 130.128906 39.441406 C 130.128906 38.917969 130.101562 38.394531 130.050781 37.871094 C 130 37.351562 129.921875 36.832031 129.820312 36.320312 C 129.71875 35.804688 129.589844 35.296875 129.4375 34.796875 C 129.285156 34.292969 129.109375 33.800781 128.910156 33.316406 C 128.707031 32.832031 128.484375 32.359375 128.238281 31.898438 C 127.992188 31.433594 127.722656 30.984375 127.429688 30.550781 C 127.140625 30.113281 126.828125 29.695312 126.496094 29.289062 C 126.164062 28.882812 125.8125 28.496094 125.441406 28.125 C 125.070312 27.753906 124.679688 27.402344 124.277344 27.070312 C 123.871094 26.738281 123.449219 26.425781 123.015625 26.132812 C 122.578125 25.84375 122.128906 25.574219 121.667969 25.328125 C 121.207031 25.082031 120.730469 24.855469 120.246094 24.65625 C 119.765625 24.457031 119.269531 24.277344 118.769531 24.125 C 118.269531 23.972656 117.761719 23.847656 117.246094 23.746094 C 116.730469 23.644531 116.214844 23.566406 115.691406 23.515625 C 115.171875 23.464844 114.648438 23.4375 114.125 23.4375 L 39.441406 23.4375 C 38.917969 23.4375 38.394531 23.464844 37.871094 23.515625 C 37.351562 23.566406 36.832031 23.644531 36.320312 23.746094 C 35.804688 23.847656 35.296875 23.972656 34.796875 24.125 C 34.292969 24.277344 33.800781 24.457031 33.316406 24.65625 C 32.832031 24.855469 32.359375 25.082031 31.898438 25.328125 C 31.433594 25.574219 30.984375 25.84375 30.550781 26.132812 C 30.113281 26.425781 29.695312 26.738281 29.289062 27.070312 C 28.882812 27.402344 28.496094 27.753906 28.125 28.125 C 27.753906 28.496094 27.402344 28.882812 27.070312 29.289062 C 26.738281 29.695312 26.425781 30.113281 26.132812 30.550781 C 25.84375 30.984375 25.574219 31.433594 25.328125 31.898438 C 25.082031 32.359375 24.855469 32.832031 24.65625 33.316406 C 24.457031 33.800781 24.277344 34.292969 24.125 34.796875 C 23.972656 35.296875 23.847656 35.804688 23.746094 36.320312 C 23.644531 36.832031 23.566406 37.351562 23.515625 37.871094 C 23.464844 38.394531 23.4375 38.917969 23.4375 39.441406 L 23.4375 98.121094 C 23.4375 98.644531 23.464844 99.167969 23.515625 99.6875 C 23.566406 100.210938 23.644531 100.726562 23.746094 101.242188 C 23.847656 101.757812 23.972656 102.265625 24.125 102.765625 C 24.277344 103.265625 24.457031 103.761719 24.65625 104.246094 C 24.855469 104.730469 25.082031 105.203125 25.328125 105.664062 C 25.574219 106.125 25.84375 106.574219 26.132812 107.011719 C 26.425781 107.445312 26.738281 107.867188 27.070312 108.273438 C 27.402344 108.679688 27.753906 109.066406 28.125 109.4375 C 28.496094 109.808594 28.882812 110.160156 29.289062 110.492188 C 29.695312 110.824219 30.113281 111.136719 30.550781 111.425781 C 30.984375 111.71875 31.433594 111.988281 31.898438 112.234375 C 32.359375 112.480469 32.832031 112.703125 33.316406 112.90625 C 33.800781 113.105469 34.292969 113.28125 34.796875 113.433594 C 35.296875 113.585938 35.804688 113.714844 36.320312 113.816406 C 36.832031 113.917969 37.351562 113.996094 37.871094 114.046875 C 38.394531 114.097656 38.917969 114.125 39.441406 114.125 Z M 34.105469 39.441406 C 34.105469 39.089844 34.140625 38.742188 34.207031 38.398438 C 34.277344 38.058594 34.378906 37.722656 34.511719 37.398438 C 34.648438 37.074219 34.8125 36.769531 35.003906 36.476562 C 35.199219 36.1875 35.421875 35.917969 35.667969 35.667969 C 35.917969 35.421875 36.1875 35.199219 36.476562 35.003906 C 36.769531 34.8125 37.074219 34.648438 37.398438 34.511719 C 37.722656 34.378906 38.058594 34.277344 38.398438 34.207031 C 38.742188 34.140625 39.089844 34.105469 39.441406 34.105469 L 114.125 34.105469 C 114.472656 34.105469 114.820312 34.140625 115.164062 34.207031 C 115.507812 34.277344 115.839844 34.378906 116.164062 34.511719 C 116.488281 34.648438 116.796875 34.8125 117.085938 35.003906 C 117.378906 35.199219 117.648438 35.421875 117.894531 35.667969 C 118.144531 35.917969 118.363281 36.1875 118.558594 36.476562 C 118.753906 36.769531 118.917969 37.074219 119.050781 37.398438 C 119.1875 37.722656 119.289062 38.058594 119.355469 38.398438 C 119.425781 38.742188 119.457031 39.089844 119.457031 39.441406 L 119.457031 98.121094 C 119.457031 98.46875 119.425781 98.816406 119.355469 99.160156 C 119.289062 99.503906 119.1875 99.839844 119.050781 100.160156 C 118.917969 100.484375 118.753906 100.792969 118.558594 101.085938 C 118.363281 101.375 118.144531 101.644531 117.894531 101.890625 C 117.648438 102.140625 117.378906 102.359375 117.085938 102.554688 C 116.796875 102.75 116.488281 102.914062 116.164062 103.046875 C 115.839844 103.183594 115.507812 103.285156 115.164062 103.351562 C 114.820312 103.421875 114.472656 103.453125 114.125 103.453125 L 39.441406 103.453125 C 39.089844 103.453125 38.742188 103.421875 38.398438 103.351562 C 38.058594 103.285156 37.722656 103.183594 37.398438 103.046875 C 37.074219 102.914062 36.769531 102.75 36.476562 102.554688 C 36.1875 102.359375 35.917969 102.140625 35.667969 101.890625 C 35.421875 101.644531 35.199219 101.375 35.003906 101.085938 C 34.8125 100.792969 34.648438 100.484375 34.511719 100.160156 C 34.378906 99.839844 34.277344 99.503906 34.207031 99.160156 C 34.140625 98.816406 34.105469 98.46875 34.105469 98.121094 Z M 34.105469 39.441406 " fill-opacity="1" fill-rule="nonzero"/></g><g clip-path="url(#25282dc859)"><path fill="#0c2c57" d="M 338.171875 23.4375 L 263.488281 23.4375 C 262.964844 23.4375 262.441406 23.464844 261.921875 23.515625 C 261.398438 23.566406 260.882812 23.644531 260.367188 23.746094 C 259.851562 23.847656 259.34375 23.972656 258.84375 24.125 C 258.34375 24.277344 257.847656 24.457031 257.363281 24.65625 C 256.882812 24.855469 256.40625 25.082031 255.945312 25.328125 C 255.484375 25.574219 255.035156 25.84375 254.597656 26.132812 C 254.164062 26.425781 253.742188 26.738281 253.335938 27.070312 C 252.933594 27.402344 252.542969 27.753906 252.171875 28.125 C 251.800781 28.496094 251.449219 28.882812 251.117188 29.289062 C 250.785156 29.695312 250.472656 30.113281 250.183594 30.550781 C 249.890625 30.984375 249.621094 31.433594 249.375 31.898438 C 249.128906 32.359375 248.90625 32.832031 248.703125 33.316406 C 248.503906 33.800781 248.328125 34.292969 248.175781 34.796875 C 248.023438 35.296875 247.894531 35.804688 247.792969 36.320312 C 247.691406 36.832031 247.613281 37.351562 247.5625 37.871094 C 247.511719 38.394531 247.484375 38.917969 247.484375 39.441406 L 247.484375 98.121094 C 247.484375 98.644531 247.511719 99.167969 247.5625 99.6875 C 247.613281 100.210938 247.691406 100.726562 247.792969 101.242188 C 247.894531 101.757812 248.023438 102.265625 248.175781 102.765625 C 248.328125 103.265625 248.503906 103.761719 248.703125 104.246094 C 248.90625 104.730469 249.128906 105.203125 249.375 105.664062 C 249.621094 106.125 249.890625 106.574219 250.183594 107.011719 C 250.472656 107.445312 250.785156 107.867188 251.117188 108.273438 C 251.449219 108.679688 251.800781 109.066406 252.171875 109.4375 C 252.542969 109.808594 252.933594 110.160156 253.335938 110.492188 C 253.742188 110.824219 254.164062 111.136719 254.597656 111.425781 C 255.035156 111.71875 255.484375 111.988281 255.945312 112.234375 C 256.40625 112.480469 256.882812 112.703125 257.363281 112.90625 C 257.847656 113.105469 258.34375 113.28125 258.84375 113.433594 C 259.34375 113.585938 259.851562 113.714844 260.367188 113.816406 C 260.882812 113.917969 261.398438 113.996094 261.921875 114.046875 C 262.441406 114.097656 262.964844 114.125 263.488281 114.125 L 338.171875 114.125 C 338.695312 114.125 339.21875 114.097656 339.742188 114.046875 C 340.261719 113.996094 340.78125 113.917969 341.292969 113.816406 C 341.808594 113.714844 342.316406 113.585938 342.816406 113.433594 C 343.320312 113.28125 343.8125 113.105469 344.296875 112.90625 C 344.78125 112.703125 345.253906 112.480469 345.714844 112.234375 C 346.179688 111.988281 346.628906 111.71875 347.0625 111.425781 C 347.5 111.136719 347.917969 110.824219 348.324219 110.492188 C 348.730469 110.160156 349.117188 109.808594 349.488281 109.4375 C 349.859375 109.066406 350.210938 108.679688 350.542969 108.273438 C 350.875 107.867188 351.1875 107.445312 351.480469 107.011719 C 351.769531 106.574219 352.039062 106.125 352.285156 105.664062 C 352.53125 105.203125 352.757812 104.730469 352.957031 104.246094 C 353.15625 103.761719 353.335938 103.265625 353.488281 102.765625 C 353.640625 102.265625 353.765625 101.757812 353.867188 101.242188 C 353.96875 100.726562 354.046875 100.210938 354.097656 99.6875 C 354.148438 99.167969 354.175781 98.644531 354.175781 98.121094 L 354.175781 39.441406 C 354.175781 38.917969 354.148438 38.394531 354.097656 37.871094 C 354.046875 37.351562 353.96875 36.832031 353.867188 36.320312 C 353.765625 35.804688 353.640625 35.296875 353.488281 34.796875 C 353.335938 34.292969 353.15625 33.800781 352.957031 33.316406 C 352.757812 32.832031 352.53125 32.359375 352.285156 31.898438 C 352.039062 31.433594 351.769531 30.984375 351.480469 30.550781 C 351.1875 30.113281 350.875 29.695312 350.542969 29.289062 C 350.210938 28.882812 349.859375 28.496094 349.488281 28.125 C 349.117188 27.753906 348.730469 27.402344 348.324219 27.070312 C 347.917969 26.738281 347.5 26.425781 347.0625 26.132812 C 346.628906 25.84375 346.179688 25.574219 345.714844 25.328125 C 345.253906 25.082031 344.78125 24.855469 344.296875 24.65625 C 343.8125 24.457031 343.320312 24.277344 342.816406 24.125 C 342.316406 23.972656 341.808594 23.847656 341.292969 23.746094 C 340.78125 23.644531 340.261719 23.566406 339.742188 23.515625 C 339.21875 23.464844 338.695312 23.4375 338.171875 23.4375 Z M 343.507812 98.121094 C 343.507812 98.46875 343.472656 98.816406 343.402344 99.160156 C 343.335938 99.503906 343.234375 99.839844 343.101562 100.160156 C 342.964844 100.484375 342.800781 100.792969 342.609375 101.085938 C 342.414062 101.375 342.191406 101.644531 341.945312 101.890625 C 341.695312 102.140625 341.425781 102.359375 341.136719 102.554688 C 340.84375 102.75 340.539062 102.914062 340.214844 103.046875 C 339.890625 103.183594 339.554688 103.285156 339.214844 103.351562 C 338.871094 103.421875 338.523438 103.453125 338.171875 103.453125 L 263.488281 103.453125 C 263.140625 103.453125 262.792969 103.421875 262.449219 103.351562 C 262.105469 103.285156 261.773438 103.183594 261.449219 103.046875 C 261.125 102.914062 260.816406 102.75 260.527344 102.554688 C 260.234375 102.359375 259.964844 102.140625 259.71875 101.890625 C 259.46875 101.644531 259.25 101.375 259.054688 101.085938 C 258.859375 100.792969 258.695312 100.484375 258.5625 100.160156 C 258.425781 99.839844 258.324219 99.503906 258.257812 99.160156 C 258.1875 98.816406 258.15625 98.46875 258.15625 98.121094 L 258.15625 39.441406 C 258.15625 39.089844 258.1875 38.742188 258.257812 38.398438 C 258.324219 38.058594 258.425781 37.722656 258.5625 37.398438 C 258.695312 37.074219 258.859375 36.769531 259.054688 36.476562 C 259.25 36.1875 259.46875 35.917969 259.71875 35.667969 C 259.964844 35.421875 260.234375 35.199219 260.527344 35.003906 C 260.816406 34.8125 261.125 34.648438 261.449219 34.511719 C 261.773438 34.378906 262.105469 34.277344 262.449219 34.207031 C 262.792969 34.140625 263.140625 34.105469 263.488281 34.105469 L 338.171875 34.105469 C 338.523438 34.105469 338.871094 34.140625 339.214844 34.207031 C 339.554688 34.277344 339.890625 34.378906 340.214844 34.511719 C 340.539062 34.648438 340.84375 34.8125 341.136719 35.003906 C 341.425781 35.199219 341.695312 35.421875 341.945312 35.667969 C 342.191406 35.917969 342.414062 36.1875 342.609375 36.476562 C 342.800781 36.769531 342.964844 37.074219 343.101562 37.398438 C 343.234375 37.722656 343.335938 38.058594 343.40625 38.398438 C 343.472656 38.742188 343.507812 39.089844 343.507812 39.441406 Z M 343.507812 98.121094 " fill-opacity="1" fill-rule="nonzero"/></g><g clip-path="url(#16e5795ee4)"><path fill="#0c2c57" d="M 39.441406 354.175781 L 114.125 354.175781 C 114.648438 354.175781 115.171875 354.148438 115.691406 354.097656 C 116.214844 354.046875 116.730469 353.96875 117.246094 353.867188 C 117.761719 353.765625 118.269531 353.640625 118.769531 353.488281 C 119.269531 353.335938 119.765625 353.15625 120.246094 352.957031 C 120.730469 352.757812 121.207031 352.53125 121.667969 352.285156 C 122.128906 352.039062 122.578125 351.769531 123.015625 351.480469 C 123.449219 351.1875 123.871094 350.875 124.277344 350.542969 C 124.679688 350.210938 125.070312 349.859375 125.441406 349.488281 C 125.8125 349.117188 126.164062 348.730469 126.496094 348.324219 C 126.828125 347.917969 127.140625 347.5 127.429688 347.0625 C 127.722656 346.628906 127.992188 346.179688 128.238281 345.714844 C 128.484375 345.253906 128.707031 344.78125 128.910156 344.296875 C 129.109375 343.8125 129.285156 343.320312 129.4375 342.816406 C 129.589844 342.316406 129.71875 341.808594 129.820312 341.292969 C 129.921875 340.78125 130 340.261719 130.050781 339.742188 C 130.101562 339.21875 130.128906 338.695312 130.128906 338.171875 L 130.128906 279.492188 C 130.128906 278.96875 130.101562 278.445312 130.050781 277.925781 C 130 277.402344 129.921875 276.886719 129.820312 276.371094 C 129.71875 275.855469 129.589844 275.347656 129.4375 274.847656 C 129.285156 274.347656 129.109375 273.851562 128.910156 273.367188 C 128.707031 272.882812 128.484375 272.410156 128.238281 271.949219 C 127.992188 271.488281 127.722656 271.039062 127.429688 270.601562 C 127.140625 270.167969 126.828125 269.746094 126.496094 269.339844 C 126.164062 268.933594 125.8125 268.546875 125.441406 268.175781 C 125.070312 267.804688 124.679688 267.453125 124.277344 267.121094 C 123.871094 266.789062 123.449219 266.476562 123.015625 266.1875 C 122.578125 265.894531 122.128906 265.625 121.667969 265.378906 C 121.207031 265.132812 120.730469 264.910156 120.246094 264.707031 C 119.765625 264.507812 119.269531 264.332031 118.769531 264.179688 C 118.269531 264.027344 117.761719 263.898438 117.246094 263.796875 C 116.730469 263.695312 116.214844 263.617188 115.691406 263.566406 C 115.171875 263.515625 114.648438 263.488281 114.125 263.488281 L 39.441406 263.488281 C 38.917969 263.488281 38.394531 263.515625 37.871094 263.566406 C 37.351562 263.617188 36.832031 263.695312 36.320312 263.796875 C 35.804688 263.898438 35.296875 264.027344 34.796875 264.179688 C 34.292969 264.332031 33.800781 264.507812 33.316406 264.707031 C 32.832031 264.910156 32.359375 265.132812 31.898438 265.378906 C 31.433594 265.625 30.984375 265.894531 30.550781 266.1875 C 30.113281 266.476562 29.695312 266.789062 29.289062 267.121094 C 28.882812 267.453125 28.496094 267.804688 28.125 268.175781 C 27.753906 268.546875 27.402344 268.933594 27.070312 269.339844 C 26.738281 269.746094 26.425781 270.167969 26.132812 270.601562 C 25.84375 271.039062 25.574219 271.488281 25.328125 271.949219 C 25.082031 272.410156 24.855469 272.882812 24.65625 273.367188 C 24.457031 273.851562 24.277344 274.347656 24.125 274.847656 C 23.972656 275.347656 23.847656 275.855469 23.746094 276.371094 C 23.644531 276.886719 23.566406 277.402344 23.515625 277.925781 C 23.464844 278.445312 23.4375 278.96875 23.4375 279.492188 L 23.4375 338.171875 C 23.4375 338.695312 23.464844 339.21875 23.515625 339.742188 C 23.566406 340.261719 23.644531 340.78125 23.746094 341.292969 C 23.847656 341.808594 23.972656 342.316406 24.125 342.816406 C 24.277344 343.320312 24.457031 343.8125 24.65625 344.296875 C 24.855469 344.78125 25.082031 345.253906 25.328125 345.714844 C 25.574219 346.179688 25.84375 346.628906 26.132812 347.0625 C 26.425781 347.5 26.738281 347.917969 27.070312 348.324219 C 27.402344 348.730469 27.753906 349.117188 28.125 349.488281 C 28.496094 349.859375 28.882812 350.210938 29.289062 350.542969 C 29.695312 350.875 30.113281 351.1875 30.550781 351.480469 C 30.984375 351.769531 31.433594 352.039062 31.898438 352.285156 C 32.359375 352.53125 32.832031 352.757812 33.316406 352.957031 C 33.800781 353.15625 34.292969 353.335938 34.796875 353.488281 C 35.296875 353.640625 35.804688 353.765625 36.320312 353.867188 C 36.832031 353.96875 37.351562 354.046875 37.871094 354.097656 C 38.394531 354.148438 38.917969 354.175781 39.441406 354.175781 Z M 34.105469 279.492188 C 34.105469 279.144531 34.140625 278.796875 34.207031 278.453125 C 34.277344 278.109375 34.378906 277.773438 34.511719 277.453125 C 34.648438 277.128906 34.8125 276.820312 35.003906 276.527344 C 35.199219 276.238281 35.421875 275.96875 35.667969 275.722656 C 35.917969 275.472656 36.1875 275.253906 36.476562 275.058594 C 36.769531 274.863281 37.074219 274.699219 37.398438 274.566406 C 37.722656 274.429688 38.058594 274.328125 38.398438 274.261719 C 38.742188 274.191406 39.089844 274.160156 39.441406 274.160156 L 114.125 274.160156 C 114.472656 274.160156 114.820312 274.191406 115.164062 274.261719 C 115.507812 274.328125 115.839844 274.429688 116.164062 274.566406 C 116.488281 274.699219 116.796875 274.863281 117.085938 275.058594 C 117.378906 275.253906 117.648438 275.472656 117.894531 275.722656 C 118.144531 275.96875 118.363281 276.238281 118.558594 276.527344 C 118.753906 276.820312 118.917969 277.128906 119.050781 277.453125 C 119.1875 277.773438 119.289062 278.109375 119.355469 278.453125 C 119.425781 278.796875 119.457031 279.144531 119.457031 279.492188 L 119.457031 338.171875 C 119.457031 338.523438 119.425781 338.871094 119.355469 339.214844 C 119.289062 339.554688 119.1875 339.890625 119.050781 340.214844 C 118.917969 340.539062 118.753906 340.84375 118.558594 341.136719 C 118.363281 341.425781 118.144531 341.695312 117.894531 341.945312 C 117.648438 342.191406 117.378906 342.414062 117.085938 342.609375 C 116.796875 342.800781 116.488281 342.964844 116.164062 343.101562 C 115.839844 343.234375 115.507812 343.335938 115.164062 343.402344 C 114.820312 343.472656 114.472656 343.507812 114.125 343.507812 L 39.441406 343.507812 C 39.089844 343.507812 38.742188 343.472656 38.398438 343.402344 C 38.058594 343.335938 37.722656 343.234375 37.398438 343.101562 C 37.074219 342.964844 36.769531 342.800781 36.476562 342.609375 C 36.1875 342.414062 35.917969 342.191406 35.667969 341.945312 C 35.421875 341.695312 35.199219 341.425781 35.003906 341.136719 C 34.8125 340.84375 34.648438 340.539062 34.511719 340.214844 C 34.378906 339.890625 34.277344 339.554688 34.207031 339.214844 C 34.140625 338.871094 34.105469 338.523438 34.105469 338.171875 Z M 34.105469 279.492188 " fill-opacity="1" fill-rule="nonzero"/></g><path fill="#0c2c57" d="M 55.445312 94.734375 C 56.269531 95.210938 57.160156 95.449219 58.113281 95.449219 C 59.066406 95.449219 59.953125 95.210938 60.777344 94.734375 L 98.121094 73.394531 C 98.949219 72.921875 99.605469 72.269531 100.085938 71.441406 C 100.566406 70.613281 100.804688 69.722656 100.804688 68.765625 C 100.804688 67.808594 100.566406 66.914062 100.085938 66.089844 C 99.605469 65.261719 98.949219 64.609375 98.121094 64.132812 L 60.777344 42.796875 C 59.953125 42.320312 59.058594 42.082031 58.105469 42.082031 C 57.148438 42.082031 56.257812 42.324219 55.433594 42.804688 C 54.605469 43.28125 53.957031 43.9375 53.480469 44.765625 C 53.007812 45.59375 52.773438 46.488281 52.777344 47.441406 L 52.777344 90.117188 C 52.777344 91.070312 53.015625 91.957031 53.492188 92.78125 C 53.96875 93.605469 54.621094 94.257812 55.445312 94.734375 Z M 63.445312 56.632812 L 84.699219 68.78125 L 63.445312 80.925781 Z M 63.445312 56.632812 " fill-opacity="1" fill-rule="nonzero"/><path fill="#0c2c57" d="M 306.015625 45.40625 C 305.589844 45.175781 305.140625 45.011719 304.671875 44.902344 C 304.199219 44.796875 303.722656 44.757812 303.238281 44.78125 C 302.757812 44.804688 302.285156 44.890625 301.828125 45.042969 C 301.371094 45.195312 300.9375 45.402344 300.539062 45.671875 L 285.894531 55.445312 L 271.492188 55.445312 C 271.140625 55.445312 270.792969 55.480469 270.449219 55.546875 C 270.105469 55.617188 269.773438 55.714844 269.449219 55.851562 C 269.125 55.984375 268.820312 56.148438 268.527344 56.34375 C 268.234375 56.539062 267.96875 56.757812 267.71875 57.007812 C 267.472656 57.253906 267.25 57.523438 267.054688 57.816406 C 266.859375 58.105469 266.695312 58.414062 266.5625 58.738281 C 266.429688 59.0625 266.328125 59.394531 266.257812 59.738281 C 266.191406 60.082031 266.15625 60.429688 266.15625 60.777344 L 266.15625 76.78125 C 266.15625 77.132812 266.191406 77.480469 266.257812 77.824219 C 266.328125 78.167969 266.429688 78.5 266.5625 78.824219 C 266.695312 79.148438 266.859375 79.453125 267.054688 79.746094 C 267.25 80.039062 267.472656 80.308594 267.71875 80.554688 C 267.96875 80.800781 268.234375 81.023438 268.527344 81.21875 C 268.820312 81.414062 269.125 81.578125 269.449219 81.710938 C 269.773438 81.84375 270.105469 81.945312 270.449219 82.015625 C 270.792969 82.082031 271.140625 82.117188 271.492188 82.117188 L 285.894531 82.117188 L 300.554688 91.890625 C 300.957031 92.15625 301.386719 92.363281 301.84375 92.511719 C 302.300781 92.660156 302.769531 92.746094 303.25 92.769531 C 303.730469 92.792969 304.207031 92.75 304.675781 92.644531 C 305.148438 92.539062 305.59375 92.371094 306.019531 92.144531 C 306.441406 91.914062 306.828125 91.636719 307.179688 91.304688 C 307.527344 90.972656 307.824219 90.597656 308.074219 90.183594 C 308.320312 89.773438 308.507812 89.332031 308.636719 88.871094 C 308.765625 88.40625 308.832031 87.933594 308.832031 87.453125 L 308.832031 50.109375 C 308.832031 49.628906 308.769531 49.152344 308.640625 48.6875 C 308.511719 48.222656 308.324219 47.78125 308.074219 47.367188 C 307.828125 46.953125 307.527344 46.578125 307.179688 46.246094 C 306.828125 45.914062 306.441406 45.632812 306.015625 45.40625 Z M 298.164062 77.480469 L 290.457031 72.34375 C 289.558594 71.75 288.570312 71.449219 287.496094 71.449219 L 276.824219 71.449219 L 276.824219 66.113281 L 287.496094 66.113281 C 288.570312 66.113281 289.558594 65.8125 290.457031 65.21875 L 298.164062 60.082031 Z M 298.164062 77.480469 " fill-opacity="1" fill-rule="nonzero"/><path fill="#0c2c57" d="M 319.5 52.777344 L 319.5 63.445312 C 319.851562 63.445312 320.199219 63.480469 320.542969 63.546875 C 320.886719 63.617188 321.21875 63.71875 321.542969 63.851562 C 321.867188 63.984375 322.175781 64.152344 322.464844 64.34375 C 322.757812 64.539062 323.027344 64.761719 323.273438 65.007812 C 323.519531 65.257812 323.742188 65.527344 323.9375 65.816406 C 324.132812 66.109375 324.296875 66.414062 324.429688 66.738281 C 324.5625 67.0625 324.664062 67.394531 324.734375 67.738281 C 324.800781 68.082031 324.835938 68.429688 324.835938 68.78125 C 324.835938 69.132812 324.800781 69.476562 324.734375 69.820312 C 324.664062 70.164062 324.5625 70.5 324.429688 70.820312 C 324.296875 71.144531 324.132812 71.453125 323.9375 71.746094 C 323.742188 72.035156 323.519531 72.304688 323.273438 72.550781 C 323.027344 72.800781 322.757812 73.023438 322.464844 73.214844 C 322.175781 73.410156 321.867188 73.574219 321.542969 73.710938 C 321.21875 73.84375 320.886719 73.945312 320.542969 74.011719 C 320.199219 74.082031 319.851562 74.113281 319.5 74.113281 L 319.5 84.785156 C 320.027344 84.785156 320.546875 84.757812 321.070312 84.707031 C 321.59375 84.65625 322.109375 84.578125 322.625 84.476562 C 323.136719 84.375 323.644531 84.246094 324.148438 84.09375 C 324.648438 83.941406 325.140625 83.765625 325.625 83.566406 C 326.109375 83.367188 326.582031 83.140625 327.046875 82.894531 C 327.507812 82.648438 327.957031 82.378906 328.394531 82.085938 C 328.828125 81.796875 329.25 81.484375 329.652344 81.152344 C 330.058594 80.820312 330.445312 80.46875 330.816406 80.097656 C 331.1875 79.726562 331.539062 79.339844 331.871094 78.933594 C 332.203125 78.527344 332.515625 78.109375 332.808594 77.671875 C 333.097656 77.234375 333.367188 76.785156 333.617188 76.324219 C 333.863281 75.863281 334.085938 75.390625 334.285156 74.90625 C 334.488281 74.421875 334.664062 73.929688 334.816406 73.425781 C 334.96875 72.925781 335.09375 72.417969 335.199219 71.902344 C 335.300781 71.390625 335.375 70.871094 335.429688 70.347656 C 335.480469 69.828125 335.503906 69.304688 335.503906 68.78125 C 335.503906 68.257812 335.480469 67.734375 335.429688 67.210938 C 335.375 66.691406 335.300781 66.171875 335.199219 65.660156 C 335.09375 65.144531 334.96875 64.636719 334.816406 64.136719 C 334.664062 63.632812 334.488281 63.140625 334.285156 62.65625 C 334.085938 62.171875 333.863281 61.699219 333.617188 61.238281 C 333.367188 60.773438 333.097656 60.324219 332.808594 59.890625 C 332.515625 59.453125 332.203125 59.035156 331.871094 58.628906 C 331.539062 58.222656 331.1875 57.835938 330.816406 57.464844 C 330.445312 57.09375 330.058594 56.742188 329.652344 56.410156 C 329.25 56.078125 328.828125 55.765625 328.394531 55.472656 C 327.957031 55.183594 327.507812 54.914062 327.046875 54.667969 C 326.582031 54.417969 326.109375 54.195312 325.625 53.996094 C 325.140625 53.792969 324.648438 53.617188 324.148438 53.464844 C 323.644531 53.3125 323.136719 53.1875 322.625 53.085938 C 322.109375 52.984375 321.59375 52.90625 321.070312 52.855469 C 320.546875 52.804688 320.027344 52.777344 319.5 52.777344 Z M 319.5 52.777344 " fill-opacity="1" fill-rule="nonzero"/><path fill="#0c2c57" d="M 331.113281 249.582031 C 333.152344 244.789062 334.949219 239.90625 336.496094 234.933594 C 338.042969 229.960938 339.335938 224.921875 340.378906 219.820312 C 341.417969 214.714844 342.199219 209.574219 342.722656 204.390625 C 343.246094 199.210938 343.507812 194.015625 343.507812 188.804688 C 343.507812 183.597656 343.246094 178.402344 342.722656 173.222656 C 342.199219 168.039062 341.417969 162.898438 340.378906 157.792969 C 339.335938 152.691406 338.042969 147.652344 336.496094 142.679688 C 334.949219 137.707031 333.152344 132.824219 331.113281 128.03125 L 321.300781 132.222656 C 323.199219 136.683594 324.867188 141.230469 326.308594 145.859375 C 327.75 150.492188 328.953125 155.183594 329.921875 159.933594 C 330.894531 164.683594 331.621094 169.472656 332.109375 174.296875 C 332.59375 179.121094 332.835938 183.957031 332.835938 188.804688 C 332.835938 193.65625 332.59375 198.492188 332.109375 203.316406 C 331.621094 208.140625 330.894531 212.929688 329.921875 217.679688 C 328.953125 222.429688 327.75 227.121094 326.308594 231.753906 C 324.867188 236.382812 323.199219 240.929688 321.300781 245.390625 Z M 331.113281 249.582031 " fill-opacity="1" fill-rule="nonzero"/><path fill="#0c2c57" d="M 144.609375 40.507812 L 147.652344 50.734375 C 154.332031 48.765625 161.121094 47.285156 168.015625 46.289062 C 174.910156 45.296875 181.839844 44.796875 188.804688 44.796875 C 195.773438 44.796875 202.703125 45.296875 209.597656 46.289062 C 216.492188 47.285156 223.28125 48.765625 229.960938 50.734375 L 233.003906 40.507812 C 225.828125 38.394531 218.539062 36.800781 211.132812 35.734375 C 203.730469 34.664062 196.289062 34.128906 188.804688 34.128906 C 181.324219 34.128906 173.882812 34.664062 166.480469 35.734375 C 159.074219 36.800781 151.785156 38.394531 144.609375 40.507812 Z M 144.609375 40.507812 " fill-opacity="1" fill-rule="nonzero"/><path fill="#0c2c57" d="M 46.5 128.03125 C 44.460938 132.824219 42.667969 137.707031 41.117188 142.679688 C 39.570312 147.652344 38.277344 152.691406 37.234375 157.792969 C 36.195312 162.898438 35.414062 168.039062 34.890625 173.222656 C 34.367188 178.402344 34.105469 183.597656 34.105469 188.804688 C 34.105469 194.015625 34.367188 199.210938 34.890625 204.390625 C 35.414062 209.574219 36.195312 214.714844 37.234375 219.820312 C 38.277344 224.921875 39.570312 229.960938 41.117188 234.933594 C 42.667969 239.90625 44.460938 244.789062 46.5 249.582031 L 56.3125 245.390625 C 54.414062 240.929688 52.746094 236.382812 51.304688 231.753906 C 49.863281 227.121094 48.660156 222.429688 47.691406 217.679688 C 46.71875 212.929688 45.992188 208.140625 45.503906 203.316406 C 45.019531 198.492188 44.777344 193.65625 44.777344 188.804688 C 44.777344 183.957031 45.019531 179.121094 45.503906 174.296875 C 45.992188 169.472656 46.71875 164.683594 47.691406 159.933594 C 48.660156 155.183594 49.863281 150.492188 51.304688 145.859375 C 52.746094 141.230469 54.414062 136.683594 56.3125 132.222656 Z M 46.5 128.03125 " fill-opacity="1" fill-rule="nonzero"/><path fill="#0c2c57" d="M 144.609375 337.105469 C 151.785156 339.230469 159.074219 340.828125 166.476562 341.902344 C 173.882812 342.976562 181.324219 343.511719 188.804688 343.511719 C 196.289062 343.511719 203.730469 342.976562 211.136719 341.902344 C 218.539062 340.828125 225.828125 339.230469 233.003906 337.105469 L 229.960938 326.878906 C 223.28125 328.847656 216.492188 330.328125 209.597656 331.324219 C 202.703125 332.316406 195.773438 332.816406 188.804688 332.816406 C 181.839844 332.816406 174.910156 332.316406 168.015625 331.324219 C 161.121094 330.328125 154.332031 328.847656 147.652344 326.878906 Z M 144.609375 337.105469 " fill-opacity="1" fill-rule="nonzero"/><path fill="#0c2c57" d="M 44.777344 335.503906 L 108.789062 335.503906 C 109.019531 335.503906 109.25 335.488281 109.480469 335.460938 C 109.710938 335.429688 109.9375 335.382812 110.160156 335.324219 C 110.386719 335.265625 110.605469 335.191406 110.820312 335.101562 C 111.035156 335.015625 111.242188 334.910156 111.441406 334.796875 C 111.644531 334.679688 111.835938 334.554688 112.019531 334.414062 C 112.203125 334.273438 112.378906 334.121094 112.542969 333.957031 C 112.707031 333.792969 112.859375 333.621094 113.003906 333.4375 C 113.144531 333.253906 113.273438 333.0625 113.390625 332.863281 C 113.507812 332.664062 113.609375 332.457031 113.703125 332.242188 C 113.792969 332.027344 113.867188 331.808594 113.929688 331.585938 C 113.988281 331.363281 114.035156 331.136719 114.070312 330.90625 C 114.101562 330.679688 114.117188 330.449219 114.121094 330.214844 C 114.121094 329.984375 114.109375 329.753906 114.082031 329.523438 C 114.050781 329.292969 114.007812 329.066406 113.953125 328.839844 C 113.894531 328.617188 113.820312 328.398438 113.734375 328.183594 C 113.648438 327.96875 113.550781 327.757812 113.4375 327.558594 L 89.429688 284.878906 C 89.304688 284.6875 89.167969 284.503906 89.019531 284.328125 C 88.871094 284.152344 88.710938 283.988281 88.542969 283.832031 C 88.375 283.675781 88.195312 283.53125 88.007812 283.394531 C 87.824219 283.261719 87.628906 283.140625 87.425781 283.03125 C 87.222656 282.921875 87.015625 282.824219 86.800781 282.742188 C 86.585938 282.65625 86.367188 282.585938 86.144531 282.53125 C 85.921875 282.472656 85.695312 282.429688 85.46875 282.402344 C 85.242188 282.375 85.011719 282.359375 84.78125 282.359375 C 84.550781 282.359375 84.324219 282.375 84.09375 282.402344 C 83.867188 282.429688 83.640625 282.472656 83.417969 282.53125 C 83.195312 282.585938 82.976562 282.65625 82.761719 282.742188 C 82.546875 282.824219 82.339844 282.921875 82.136719 283.03125 C 81.933594 283.140625 81.742188 283.261719 81.554688 283.394531 C 81.367188 283.53125 81.1875 283.675781 81.019531 283.832031 C 80.851562 283.988281 80.691406 284.152344 80.542969 284.328125 C 80.394531 284.503906 80.257812 284.6875 80.132812 284.878906 L 71.171875 300.832031 L 68.050781 295.496094 C 67.921875 295.308594 67.785156 295.128906 67.636719 294.957031 C 67.488281 294.785156 67.332031 294.625 67.164062 294.472656 C 66.996094 294.320312 66.816406 294.179688 66.632812 294.046875 C 66.445312 293.917969 66.253906 293.800781 66.054688 293.691406 C 65.851562 293.585938 65.648438 293.492188 65.4375 293.410156 C 65.222656 293.328125 65.007812 293.261719 64.789062 293.207031 C 64.570312 293.152344 64.347656 293.109375 64.121094 293.082031 C 63.894531 293.054688 63.671875 293.039062 63.445312 293.039062 C 63.214844 293.039062 62.992188 293.054688 62.765625 293.082031 C 62.539062 293.109375 62.316406 293.152344 62.097656 293.207031 C 61.878906 293.261719 61.664062 293.328125 61.449219 293.410156 C 61.238281 293.492188 61.035156 293.585938 60.832031 293.691406 C 60.632812 293.800781 60.441406 293.917969 60.253906 294.046875 C 60.070312 294.179688 59.890625 294.320312 59.722656 294.472656 C 59.554688 294.625 59.398438 294.785156 59.25 294.957031 C 59.101562 295.128906 58.964844 295.308594 58.835938 295.496094 L 40.167969 327.503906 C 40.050781 327.703125 39.945312 327.914062 39.859375 328.128906 C 39.769531 328.34375 39.695312 328.5625 39.632812 328.789062 C 39.574219 329.011719 39.527344 329.242188 39.496094 329.472656 C 39.46875 329.703125 39.453125 329.933594 39.453125 330.167969 C 39.453125 330.402344 39.464844 330.632812 39.496094 330.863281 C 39.527344 331.09375 39.574219 331.324219 39.632812 331.546875 C 39.691406 331.773438 39.765625 331.992188 39.855469 332.207031 C 39.945312 332.421875 40.046875 332.632812 40.164062 332.832031 C 40.28125 333.035156 40.410156 333.226562 40.550781 333.414062 C 40.691406 333.597656 40.84375 333.773438 41.007812 333.9375 C 41.175781 334.101562 41.347656 334.257812 41.53125 334.398438 C 41.71875 334.539062 41.910156 334.667969 42.113281 334.785156 C 42.3125 334.902344 42.523438 335.007812 42.738281 335.097656 C 42.953125 335.183594 43.171875 335.261719 43.394531 335.320312 C 43.621094 335.382812 43.847656 335.425781 44.078125 335.457031 C 44.3125 335.488281 44.542969 335.503906 44.777344 335.503906 Z M 63.445312 308.746094 L 66.648438 314.238281 C 66.875 314.648438 67.15625 315.023438 67.488281 315.359375 C 67.820312 315.695312 68.191406 315.980469 68.601562 316.214844 C 69.011719 316.449219 69.441406 316.625 69.898438 316.742188 C 70.355469 316.859375 70.820312 316.914062 71.292969 316.902344 C 72.25 316.898438 73.140625 316.652344 73.960938 316.164062 C 74.785156 315.679688 75.433594 315.019531 75.902344 314.1875 L 84.785156 298.378906 L 99.667969 324.835938 L 54.0625 324.835938 Z M 63.445312 308.746094 " fill-opacity="1" fill-rule="nonzero"/><g clip-path="url(#41e6446093)"><path fill="#0c2c57" d="M 338.171875 263.488281 L 263.488281 263.488281 C 262.964844 263.488281 262.441406 263.515625 261.921875 263.566406 C 261.398438 263.617188 260.882812 263.695312 260.367188 263.796875 C 259.851562 263.898438 259.34375 264.027344 258.84375 264.179688 C 258.34375 264.332031 257.847656 264.507812 257.363281 264.707031 C 256.882812 264.910156 256.40625 265.132812 255.945312 265.378906 C 255.484375 265.625 255.035156 265.894531 254.597656 266.1875 C 254.164062 266.476562 253.742188 266.789062 253.335938 267.121094 C 252.933594 267.453125 252.542969 267.804688 252.171875 268.175781 C 251.800781 268.546875 251.449219 268.933594 251.117188 269.339844 C 250.785156 269.746094 250.472656 270.167969 250.183594 270.601562 C 249.890625 271.039062 249.621094 271.488281 249.375 271.949219 C 249.128906 272.410156 248.90625 272.882812 248.703125 273.367188 C 248.503906 273.851562 248.328125 274.347656 248.175781 274.847656 C 248.023438 275.347656 247.894531 275.855469 247.792969 276.371094 C 247.691406 276.886719 247.613281 277.402344 247.5625 277.925781 C 247.511719 278.445312 247.484375 278.96875 247.484375 279.492188 L 247.484375 338.171875 C 247.484375 338.695312 247.511719 339.21875 247.5625 339.742188 C 247.613281 340.261719 247.691406 340.78125 247.792969 341.292969 C 247.894531 341.808594 248.023438 342.316406 248.175781 342.816406 C 248.328125 343.320312 248.503906 343.8125 248.703125 344.296875 C 248.90625 344.78125 249.128906 345.253906 249.375 345.714844 C 249.621094 346.179688 249.890625 346.628906 250.183594 347.0625 C 250.472656 347.5 250.785156 347.917969 251.117188 348.324219 C 251.449219 348.730469 251.800781 349.117188 252.171875 349.488281 C 252.542969 349.859375 252.933594 350.210938 253.335938 350.542969 C 253.742188 350.875 254.164062 351.1875 254.597656 351.480469 C 255.035156 351.769531 255.484375 352.039062 255.945312 352.285156 C 256.40625 352.53125 256.882812 352.757812 257.363281 352.957031 C 257.847656 353.15625 258.34375 353.335938 258.84375 353.488281 C 259.34375 353.640625 259.851562 353.765625 260.367188 353.867188 C 260.882812 353.96875 261.398438 354.046875 261.921875 354.097656 C 262.441406 354.148438 262.964844 354.175781 263.488281 354.175781 L 338.171875 354.175781 C 338.695312 354.175781 339.21875 354.148438 339.742188 354.097656 C 340.261719 354.046875 340.78125 353.96875 341.292969 353.867188 C 341.808594 353.765625 342.316406 353.640625 342.816406 353.488281 C 343.320312 353.335938 343.8125 353.15625 344.296875 352.957031 C 344.78125 352.757812 345.253906 352.53125 345.714844 352.285156 C 346.179688 352.039062 346.628906 351.769531 347.0625 351.480469 C 347.5 351.1875 347.917969 350.875 348.324219 350.542969 C 348.730469 350.210938 349.117188 349.859375 349.488281 349.488281 C 349.859375 349.117188 350.210938 348.730469 350.542969 348.324219 C 350.875 347.917969 351.1875 347.5 351.480469 347.0625 C 351.769531 346.628906 352.039062 346.179688 352.285156 345.714844 C 352.53125 345.253906 352.757812 344.78125 352.957031 344.296875 C 353.15625 343.8125 353.335938 343.320312 353.488281 342.816406 C 353.640625 342.316406 353.765625 341.808594 353.867188 341.292969 C 353.96875 340.78125 354.046875 340.261719 354.097656 339.742188 C 354.148438 339.21875 354.175781 338.695312 354.175781 338.171875 L 354.175781 279.492188 C 354.175781 278.96875 354.148438 278.445312 354.097656 277.925781 C 354.046875 277.402344 353.96875 276.886719 353.867188 276.371094 C 353.765625 275.855469 353.640625 275.347656 353.488281 274.847656 C 353.335938 274.347656 353.15625 273.851562 352.957031 273.367188 C 352.757812 272.882812 352.53125 272.410156 352.285156 271.949219 C 352.039062 271.488281 351.769531 271.039062 351.480469 270.601562 C 351.1875 270.167969 350.875 269.746094 350.542969 269.339844 C 350.210938 268.933594 349.859375 268.546875 349.488281 268.175781 C 349.117188 267.804688 348.730469 267.453125 348.324219 267.121094 C 347.917969 266.789062 347.5 266.476562 347.0625 266.1875 C 346.628906 265.894531 346.179688 265.625 345.714844 265.378906 C 345.253906 265.132812 344.78125 264.910156 344.296875 264.707031 C 343.8125 264.507812 343.320312 264.332031 342.816406 264.179688 C 342.316406 264.027344 341.808594 263.898438 341.292969 263.796875 C 340.78125 263.695312 340.261719 263.617188 339.742188 263.566406 C 339.21875 263.515625 338.695312 263.488281 338.171875 263.488281 Z M 343.507812 338.171875 C 343.507812 338.523438 343.472656 338.871094 343.402344 339.214844 C 343.335938 339.554688 343.234375 339.890625 343.101562 340.214844 C 342.964844 340.539062 342.800781 340.84375 342.609375 341.136719 C 342.414062 341.425781 342.191406 341.695312 341.945312 341.945312 C 341.695312 342.191406 341.425781 342.414062 341.136719 342.609375 C 340.84375 342.800781 340.539062 342.964844 340.214844 343.101562 C 339.890625 343.234375 339.554688 343.335938 339.214844 343.402344 C 338.871094 343.472656 338.523438 343.507812 338.171875 343.507812 L 263.488281 343.507812 C 263.140625 343.507812 262.792969 343.472656 262.449219 343.402344 C 262.105469 343.335938 261.773438 343.234375 261.449219 343.101562 C 261.125 342.964844 260.816406 342.800781 260.527344 342.609375 C 260.234375 342.414062 259.964844 342.191406 259.71875 341.945312 C 259.46875 341.695312 259.25 341.425781 259.054688 341.136719 C 258.859375 340.84375 258.695312 340.539062 258.5625 340.214844 C 258.425781 339.890625 258.324219 339.554688 258.257812 339.214844 C 258.1875 338.871094 258.15625 338.523438 258.15625 338.171875 L 258.15625 279.492188 C 258.15625 279.144531 258.1875 278.796875 258.257812 278.453125 C 258.324219 278.109375 258.425781 277.773438 258.5625 277.453125 C 258.695312 277.128906 258.859375 276.820312 259.054688 276.527344 C 259.25 276.238281 259.46875 275.96875 259.71875 275.722656 C 259.964844 275.472656 260.234375 275.253906 260.527344 275.058594 C 260.816406 274.863281 261.125 274.699219 261.449219 274.566406 C 261.773438 274.429688 262.105469 274.328125 262.449219 274.261719 C 262.792969 274.191406 263.140625 274.160156 263.488281 274.160156 L 338.171875 274.160156 C 338.523438 274.160156 338.871094 274.191406 339.214844 274.261719 C 339.554688 274.328125 339.890625 274.429688 340.214844 274.566406 C 340.539062 274.699219 340.84375 274.863281 341.136719 275.058594 C 341.425781 275.253906 341.695312 275.472656 341.945312 275.722656 C 342.191406 275.96875 342.414062 276.238281 342.609375 276.527344 C 342.800781 276.820312 342.964844 277.128906 343.101562 277.453125 C 343.234375 277.773438 343.335938 278.109375 343.40625 278.453125 C 343.472656 278.796875 343.507812 279.144531 343.507812 279.492188 Z M 343.507812 338.171875 " fill-opacity="1" fill-rule="nonzero"/></g><path fill="#0c2c57" d="M 322.167969 284.828125 L 279.492188 284.828125 C 279.144531 284.828125 278.796875 284.863281 278.453125 284.929688 C 278.109375 285 277.773438 285.097656 277.453125 285.234375 C 277.128906 285.367188 276.820312 285.53125 276.527344 285.726562 C 276.238281 285.921875 275.96875 286.140625 275.722656 286.390625 C 275.472656 286.636719 275.253906 286.90625 275.058594 287.199219 C 274.863281 287.488281 274.699219 287.796875 274.566406 288.121094 C 274.429688 288.445312 274.328125 288.777344 274.261719 289.121094 C 274.191406 289.464844 274.160156 289.8125 274.160156 290.160156 L 274.160156 300.832031 L 284.828125 300.832031 L 284.828125 295.496094 L 295.496094 295.496094 L 295.496094 322.167969 L 290.160156 322.167969 L 290.160156 332.835938 L 311.5 332.835938 L 311.5 322.167969 L 306.164062 322.167969 L 306.164062 295.496094 L 316.835938 295.496094 L 316.835938 300.832031 L 327.503906 300.832031 L 327.503906 290.160156 C 327.503906 289.8125 327.46875 289.464844 327.402344 289.121094 C 327.332031 288.777344 327.230469 288.445312 327.097656 288.121094 C 326.964844 287.796875 326.800781 287.488281 326.605469 287.199219 C 326.410156 286.90625 326.1875 286.636719 325.941406 286.390625 C 325.691406 286.140625 325.421875 285.921875 325.132812 285.726562 C 324.839844 285.53125 324.535156 285.367188 324.210938 285.234375 C 323.886719 285.097656 323.554688 285 323.210938 284.929688 C 322.867188 284.863281 322.519531 284.828125 322.167969 284.828125 Z M 322.167969 284.828125 " fill-opacity="1" fill-rule="nonzero"/></svg>