<svg xmlns="http://www.w3.org/2000/svg" xmlns:xlink="http://www.w3.org/1999/xlink" width="500" zoomAndPan="magnify" viewBox="0 0 375 374.999991" height="500" preserveAspectRatio="xMidYMid meet" version="1.0"><defs><g/><clipPath id="06f1f6a823"><path d="M 43.535156 100.617188 L 331.535156 100.617188 L 331.535156 218.367188 L 43.535156 218.367188 Z M 43.535156 100.617188 " clip-rule="nonzero"/></clipPath></defs><g clip-path="url(#06f1f6a823)"><path fill="#1b387a" d="M 54.644531 218.289062 L 110.261719 218.289062 C 110.261719 218.289062 88.011719 197.734375 89.390625 182.390625 C 94.660156 160.917969 116.914062 163.132812 123.90625 184.121094 C 127.074219 193.589844 128.082031 207.09375 128.3125 218.289062 L 153.300781 218.289062 C 152.578125 203.492188 153.039062 186.710938 156.984375 174.589844 C 167.289062 143.097656 207.679688 143.097656 217.984375 174.589844 C 223.597656 191.75 211.074219 206.976562 198.8125 218.289062 L 254.429688 218.289062 C 233.757812 171.308594 279.445312 150.066406 285.980469 184.121094 C 287.792969 193.589844 286.902344 207.09375 285.519531 218.289062 L 307.914062 218.289062 C 309.324219 210.632812 311.195312 202.398438 313.644531 196.296875 C 319.746094 180.894531 326.828125 183.113281 326.828125 183.113281 C 326.828125 183.113281 329.246094 182.449219 331.433594 184.40625 L 331.433594 175.3125 C 232.578125 122.515625 143.945312 121.679688 43.535156 175.339844 L 43.535156 184.4375 C 62.304688 174.820312 60.75 204.414062 54.644531 218.289062 Z M 72.898438 127.4375 C 78.28125 127.4375 82.65625 131.8125 82.65625 137.195312 C 82.65625 142.578125 78.28125 146.957031 72.898438 146.957031 C 67.511719 146.957031 63.136719 142.578125 63.136719 137.195312 C 63.136719 131.8125 67.511719 127.4375 72.898438 127.4375 Z M 302.042969 127.4375 C 307.425781 127.4375 311.800781 131.8125 311.800781 137.195312 C 311.800781 142.578125 307.425781 146.957031 302.042969 146.957031 C 296.660156 146.957031 292.285156 142.578125 292.285156 137.195312 C 292.285156 131.8125 296.660156 127.4375 302.042969 127.4375 Z M 138.328125 100.695312 C 145.902344 100.695312 152.03125 106.824219 152.03125 114.398438 C 152.03125 121.96875 145.902344 128.101562 138.328125 128.101562 C 130.757812 128.101562 124.628906 121.96875 124.628906 114.398438 C 124.628906 106.824219 130.789062 100.695312 138.328125 100.695312 Z M 236.609375 100.695312 C 244.179688 100.695312 250.3125 106.824219 250.3125 114.398438 C 250.3125 121.96875 244.179688 128.101562 236.609375 128.101562 C 229.039062 128.101562 222.90625 121.96875 222.90625 114.398438 C 222.90625 106.824219 229.039062 100.695312 236.609375 100.695312 Z M 236.609375 100.695312 " fill-opacity="1" fill-rule="evenodd"/></g><path fill="#1b387a" d="M 50.351562 217.082031 C 52.863281 215.359375 55.40625 213.683594 57.984375 212.054688 C 60.558594 210.429688 63.167969 208.851562 65.800781 207.320312 C 68.4375 205.792969 71.101562 204.3125 73.792969 202.882812 C 76.484375 201.457031 79.203125 200.078125 81.945312 198.75 C 84.691406 197.425781 87.457031 196.152344 90.25 194.929688 C 93.039062 193.707031 95.855469 192.539062 98.691406 191.421875 C 101.527344 190.308594 104.382812 189.246094 107.257812 188.238281 C 110.132812 187.230469 113.027344 186.277344 115.9375 185.378906 C 118.851562 184.480469 121.777344 183.636719 124.722656 182.847656 C 127.664062 182.058594 130.621094 181.328125 133.59375 180.648438 C 136.566406 179.972656 139.546875 179.351562 142.542969 178.789062 C 145.539062 178.222656 148.542969 177.71875 151.554688 177.265625 C 154.570312 176.816406 157.589844 176.421875 160.621094 176.085938 C 163.648438 175.746094 166.683594 175.46875 169.722656 175.246094 C 172.761719 175.023438 175.804688 174.859375 178.847656 174.75 C 181.894531 174.644531 184.941406 174.59375 187.988281 174.601562 C 191.035156 174.609375 194.082031 174.671875 197.125 174.792969 C 200.171875 174.917969 203.210938 175.097656 206.25 175.332031 C 209.289062 175.570312 212.320312 175.863281 215.347656 176.214844 C 218.375 176.566406 221.394531 176.976562 224.40625 177.441406 C 227.417969 177.90625 230.417969 178.429688 233.410156 179.007812 C 236.402344 179.585938 239.382812 180.222656 242.351562 180.910156 C 245.320312 181.601562 248.273438 182.347656 251.210938 183.152344 C 254.152344 183.953125 257.074219 184.8125 259.984375 185.726562 C 262.890625 186.636719 265.78125 187.605469 268.652344 188.625 C 271.523438 189.648438 274.371094 190.722656 277.203125 191.851562 C 280.03125 192.984375 282.839844 194.164062 285.625 195.398438 C 288.414062 196.636719 291.175781 197.921875 293.910156 199.261719 C 296.648438 200.601562 299.359375 201.992188 302.042969 203.433594 C 304.730469 204.875 307.386719 206.367188 310.015625 207.910156 C 312.640625 209.449219 315.242188 211.042969 317.808594 212.683594 C 320.378906 214.320312 322.914062 216.011719 325.417969 217.746094 L 295.769531 260.53125 C 291.835938 257.804688 287.804688 255.230469 283.675781 252.804688 C 279.546875 250.382812 275.332031 248.121094 271.03125 246.015625 C 266.730469 243.914062 262.359375 241.972656 257.914062 240.199219 C 253.464844 238.425781 248.960938 236.820312 244.390625 235.386719 C 239.824219 233.953125 235.210938 232.695312 230.546875 231.609375 C 225.886719 230.523438 221.1875 229.613281 216.457031 228.882812 C 211.726562 228.152344 206.972656 227.601562 202.203125 227.226562 C 197.429688 226.855469 192.648438 226.664062 187.863281 226.652344 C 183.074219 226.640625 178.292969 226.808594 173.519531 227.160156 C 168.746094 227.507812 163.992188 228.039062 159.257812 228.746094 C 154.523438 229.453125 149.820312 230.339844 145.152344 231.402344 C 140.484375 232.464844 135.863281 233.703125 131.289062 235.113281 C 126.714844 236.527344 122.203125 238.109375 117.746094 239.863281 C 113.292969 241.613281 108.910156 243.53125 104.601562 245.617188 C 100.289062 247.699219 96.066406 249.941406 91.925781 252.34375 C 87.785156 254.746094 83.738281 257.300781 79.792969 260.007812 Z M 50.351562 217.082031 " fill-opacity="1" fill-rule="nonzero"/><g fill="#ffffff" fill-opacity="1"><g transform="translate(70.677828, 248.365238)"><g/></g></g><g fill="#ffffff" fill-opacity="1"><g transform="translate(79.499751, 242.003035)"><g><path d="M 9.878906 -5.089844 L -13.683594 -27.226562 L -6.660156 -30.84375 L 10.6875 -13.660156 L 6.765625 -37.757812 L 13.789062 -41.375 L 18.132812 -9.339844 Z M 9.878906 -5.089844 "/></g></g></g><g fill="#ffffff" fill-opacity="1"><g transform="translate(105.708856, 228.887791)"><g/></g></g><g fill="#ffffff" fill-opacity="1"><g transform="translate(116.176144, 224.664887)"><g><path d="M -6.511719 -29.941406 L 0.53125 -32.28125 L 10.132812 -3.363281 L 3.089844 -1.027344 Z M -6.511719 -29.941406 "/></g></g></g><g fill="#ffffff" fill-opacity="1"><g transform="translate(127.740417, 220.786761)"><g/></g></g><g fill="#ffffff" fill-opacity="1"><g transform="translate(138.163354, 217.495362)"><g><path d="M 8.5 -13.496094 L 10.519531 -1.820312 L 3.207031 -0.554688 L -1.988281 -30.578125 L 9.859375 -32.625 C 13.335938 -33.230469 16.203125 -32.800781 18.449219 -31.339844 C 20.699219 -29.878906 22.046875 -27.878906 22.484375 -25.339844 C 22.785156 -23.601562 22.550781 -21.8125 21.78125 -19.976562 C 21.011719 -18.140625 19.492188 -16.675781 17.214844 -15.574219 L 26.6875 -4.617188 L 18.132812 -3.136719 L 9.355469 -13.644531 Z M 6.289062 -26.28125 L 7.539062 -19.054688 L 12.070312 -19.839844 C 13.183594 -20.03125 14.003906 -20.511719 14.53125 -21.277344 C 15.058594 -22.046875 15.230469 -22.964844 15.046875 -24.03125 C 14.859375 -25.101562 14.382812 -25.921875 13.609375 -26.492188 C 12.832031 -27.0625 11.90625 -27.253906 10.820312 -27.066406 Z M 6.289062 -26.28125 "/></g></g></g><g fill="#ffffff" fill-opacity="1"><g transform="translate(164.672229, 213.181681)"><g/></g></g><g fill="#ffffff" fill-opacity="1"><g transform="translate(175.58919, 211.937348)"><g><path d="M 1.339844 -24.816406 L 1.375 -30.460938 L 25.421875 -30.296875 L 25.382812 -24.65625 L 17.050781 -24.710938 L 16.882812 0.113281 L 9.460938 0.0625 L 9.628906 -24.761719 Z M 1.339844 -24.816406 "/></g></g></g><g fill="#ffffff" fill-opacity="1"><g transform="translate(199.909642, 212.2992)"><g/></g></g><g fill="#ffffff" fill-opacity="1"><g transform="translate(210.773556, 212.739169)"><g><path d="M 5.402344 -11.464844 L 8.855469 -29.320312 L 16.140625 -27.910156 L 12.6875 -10.054688 C 12.339844 -8.265625 12.515625 -6.804688 13.207031 -5.667969 C 13.902344 -4.53125 15.101562 -3.796875 16.804688 -3.46875 C 18.511719 -3.140625 19.910156 -3.367188 21.007812 -4.160156 C 22.101562 -4.949219 22.824219 -6.238281 23.171875 -8.027344 L 26.625 -25.882812 L 33.910156 -24.472656 L 30.457031 -6.617188 C 29.945312 -3.976562 28.886719 -1.816406 27.28125 -0.136719 C 25.671875 1.539062 23.839844 2.636719 21.78125 3.152344 C 19.722656 3.667969 17.582031 3.710938 15.367188 3.28125 C 11.902344 2.613281 9.183594 0.964844 7.214844 -1.65625 C 5.246094 -4.273438 4.640625 -7.546875 5.402344 -11.464844 Z M 5.402344 -11.464844 "/></g></g></g><g fill="#ffffff" fill-opacity="1"><g transform="translate(239.685814, 218.690574)"><g/></g></g><g fill="#ffffff" fill-opacity="1"><g transform="translate(250.262516, 221.279137)"><g><path d="M 20.949219 8.511719 L 21.308594 3.128906 L 11.175781 -0.988281 L 7.679688 3.121094 L 0.363281 0.148438 L 21.675781 -24.171875 L 30.039062 -20.773438 L 28.308594 11.503906 Z M 15.027344 -5.511719 L 21.703125 -2.800781 L 22.453125 -14.207031 Z M 15.027344 -5.511719 "/></g></g></g><g fill="#ffffff" fill-opacity="1"><g transform="translate(276.78017, 232.408288)"><g/></g></g><g fill="#ffffff" fill-opacity="1"><g transform="translate(286.724907, 237.379461)"><g><path d="M 18.835938 -24.167969 L 25.140625 -20.253906 L 12.046875 0.835938 L 19.902344 5.714844 L 16.925781 10.507812 L 2.765625 1.71875 Z M 18.835938 -24.167969 "/></g></g></g><g fill="#1b387a" fill-opacity="1"><g transform="translate(93.882741, 280.392315)"><g><path d="M 7.042969 -12.988281 C 6.566406 -12.988281 6.171875 -12.859375 5.863281 -12.605469 C 5.554688 -12.347656 5.402344 -11.980469 5.402344 -11.5 C 5.402344 -11.019531 5.542969 -10.636719 5.828125 -10.34375 C 6.113281 -10.050781 6.484375 -9.824219 6.945312 -9.667969 C 7.402344 -9.507812 7.910156 -9.359375 8.472656 -9.21875 C 9.035156 -9.074219 9.59375 -8.902344 10.152344 -8.699219 C 10.707031 -8.496094 11.210938 -8.246094 11.671875 -7.945312 C 12.128906 -7.644531 12.5 -7.222656 12.785156 -6.671875 C 13.070312 -6.125 13.210938 -5.46875 13.210938 -4.703125 C 13.210938 -3.367188 12.667969 -2.222656 11.582031 -1.273438 C 10.492188 -0.320312 9.058594 0.15625 7.28125 0.15625 C 5.503906 0.15625 4.070312 -0.269531 2.980469 -1.125 C 1.894531 -1.980469 1.351562 -3.195312 1.351562 -4.773438 L 5.445312 -4.773438 C 5.550781 -3.511719 6.195312 -2.882812 7.382812 -2.882812 C 7.9375 -2.882812 8.371094 -3.027344 8.6875 -3.320312 C 9.003906 -3.613281 9.160156 -3.984375 9.160156 -4.433594 C 9.160156 -4.882812 9.019531 -5.25 8.734375 -5.535156 C 8.449219 -5.820312 8.078125 -6.046875 7.617188 -6.210938 C 7.160156 -6.378906 6.652344 -6.53125 6.089844 -6.671875 C 5.527344 -6.816406 4.964844 -6.992188 4.410156 -7.203125 C 3.855469 -7.414062 3.351562 -7.664062 2.890625 -7.957031 C 2.433594 -8.25 2.0625 -8.667969 1.777344 -9.21875 C 1.492188 -9.765625 1.351562 -10.414062 1.351562 -11.164062 C 1.351562 -12.632812 1.898438 -13.8125 2.992188 -14.699219 C 4.089844 -15.582031 5.488281 -16.023438 7.191406 -16.023438 C 8.894531 -16.023438 10.269531 -15.640625 11.320312 -14.867188 C 12.371094 -14.09375 12.917969 -12.875 12.964844 -11.207031 L 8.777344 -11.207031 C 8.71875 -11.777344 8.535156 -12.21875 8.226562 -12.527344 C 7.917969 -12.832031 7.523438 -12.988281 7.042969 -12.988281 Z M 7.042969 -12.988281 "/></g></g></g><g fill="#1b387a" fill-opacity="1"><g transform="translate(119.379421, 280.392315)"><g><path d="M 11.253906 -15.84375 L 11.253906 -12.917969 L 5.535156 -12.917969 L 5.535156 -9.519531 L 10.578125 -9.519531 L 10.578125 -6.59375 L 5.535156 -6.59375 L 5.535156 -2.925781 L 11.253906 -2.925781 L 11.253906 0 L 1.6875 0 L 1.6875 -15.84375 Z M 11.253906 -15.84375 "/></g></g></g><g fill="#1b387a" fill-opacity="1"><g transform="translate(143.188601, 280.392315)"><g><path d="M 5.535156 -6.144531 L 5.535156 0 L 1.6875 0 L 1.6875 -15.800781 L 7.921875 -15.800781 C 9.753906 -15.800781 11.179688 -15.328125 12.199219 -14.382812 C 13.21875 -13.4375 13.730469 -12.296875 13.730469 -10.960938 C 13.730469 -10.046875 13.453125 -9.152344 12.898438 -8.28125 C 12.339844 -7.414062 11.433594 -6.796875 10.171875 -6.4375 L 14.042969 0 L 9.542969 0 L 5.988281 -6.144531 Z M 5.535156 -12.875 L 5.535156 -9.070312 L 7.921875 -9.070312 C 8.507812 -9.070312 8.96875 -9.242188 9.308594 -9.589844 C 9.644531 -9.933594 9.8125 -10.386719 9.8125 -10.949219 C 9.8125 -11.511719 9.640625 -11.972656 9.296875 -12.335938 C 8.949219 -12.695312 8.492188 -12.875 7.921875 -12.875 Z M 5.535156 -12.875 "/></g></g></g><g fill="#1b387a" fill-opacity="1"><g transform="translate(169.157773, 280.392315)"><g><path d="M 5.761719 0 L 0.15625 -15.800781 L 4.253906 -15.800781 L 8.171875 -3.757812 L 12.085938 -15.800781 L 16.183594 -15.800781 L 10.578125 0 Z M 5.761719 0 "/></g></g></g><g fill="#1b387a" fill-opacity="1"><g transform="translate(196.431948, 280.392315)"><g><path d="M 1.6875 -15.800781 L 5.535156 -15.800781 L 5.535156 0 L 1.6875 0 Z M 1.6875 -15.800781 "/></g></g></g><g fill="#1b387a" fill-opacity="1"><g transform="translate(214.593629, 280.392315)"><g><path d="M 3.117188 -2.148438 C 1.550781 -3.671875 0.765625 -5.605469 0.765625 -7.945312 C 0.765625 -10.285156 1.550781 -12.21875 3.117188 -13.742188 C 4.683594 -15.265625 6.601562 -16.023438 8.867188 -16.023438 C 10.625 -16.023438 12.183594 -15.558594 13.550781 -14.628906 C 14.914062 -13.699219 15.867188 -12.410156 16.40625 -10.757812 L 11.816406 -10.757812 C 11.214844 -11.914062 10.257812 -12.492188 8.933594 -12.492188 C 7.613281 -12.492188 6.574219 -12.078125 5.816406 -11.253906 C 5.058594 -10.429688 4.679688 -9.324219 4.679688 -7.945312 C 4.679688 -6.566406 5.058594 -5.460938 5.816406 -4.636719 C 6.574219 -3.8125 7.613281 -3.398438 8.933594 -3.398438 C 10.257812 -3.398438 11.214844 -3.976562 11.816406 -5.132812 L 16.40625 -5.132812 C 15.867188 -3.480469 14.914062 -2.191406 13.550781 -1.261719 C 12.183594 -0.332031 10.625 0.136719 8.867188 0.136719 C 6.601562 0.136719 4.683594 -0.625 3.117188 -2.148438 Z M 3.117188 -2.148438 "/></g></g></g><g fill="#1b387a" fill-opacity="1"><g transform="translate(242.722804, 280.392315)"><g><path d="M 11.253906 -15.84375 L 11.253906 -12.917969 L 5.535156 -12.917969 L 5.535156 -9.519531 L 10.578125 -9.519531 L 10.578125 -6.59375 L 5.535156 -6.59375 L 5.535156 -2.925781 L 11.253906 -2.925781 L 11.253906 0 L 1.6875 0 L 1.6875 -15.84375 Z M 11.253906 -15.84375 "/></g></g></g><g fill="#1b387a" fill-opacity="1"><g transform="translate(266.531984, 280.392315)"><g><path d="M 7.042969 -12.988281 C 6.566406 -12.988281 6.171875 -12.859375 5.863281 -12.605469 C 5.554688 -12.347656 5.402344 -11.980469 5.402344 -11.5 C 5.402344 -11.019531 5.542969 -10.636719 5.828125 -10.34375 C 6.113281 -10.050781 6.484375 -9.824219 6.945312 -9.667969 C 7.402344 -9.507812 7.910156 -9.359375 8.472656 -9.21875 C 9.035156 -9.074219 9.59375 -8.902344 10.152344 -8.699219 C 10.707031 -8.496094 11.210938 -8.246094 11.671875 -7.945312 C 12.128906 -7.644531 12.5 -7.222656 12.785156 -6.671875 C 13.070312 -6.125 13.210938 -5.46875 13.210938 -4.703125 C 13.210938 -3.367188 12.667969 -2.222656 11.582031 -1.273438 C 10.492188 -0.320312 9.058594 0.15625 7.28125 0.15625 C 5.503906 0.15625 4.070312 -0.269531 2.980469 -1.125 C 1.894531 -1.980469 1.351562 -3.195312 1.351562 -4.773438 L 5.445312 -4.773438 C 5.550781 -3.511719 6.195312 -2.882812 7.382812 -2.882812 C 7.9375 -2.882812 8.371094 -3.027344 8.6875 -3.320312 C 9.003906 -3.613281 9.160156 -3.984375 9.160156 -4.433594 C 9.160156 -4.882812 9.019531 -5.25 8.734375 -5.535156 C 8.449219 -5.820312 8.078125 -6.046875 7.617188 -6.210938 C 7.160156 -6.378906 6.652344 -6.53125 6.089844 -6.671875 C 5.527344 -6.816406 4.964844 -6.992188 4.410156 -7.203125 C 3.855469 -7.414062 3.351562 -7.664062 2.890625 -7.957031 C 2.433594 -8.25 2.0625 -8.667969 1.777344 -9.21875 C 1.492188 -9.765625 1.351562 -10.414062 1.351562 -11.164062 C 1.351562 -12.632812 1.898438 -13.8125 2.992188 -14.699219 C 4.089844 -15.582031 5.488281 -16.023438 7.191406 -16.023438 C 8.894531 -16.023438 10.269531 -15.640625 11.320312 -14.867188 C 12.371094 -14.09375 12.917969 -12.875 12.964844 -11.207031 L 8.777344 -11.207031 C 8.71875 -11.777344 8.535156 -12.21875 8.226562 -12.527344 C 7.917969 -12.832031 7.523438 -12.988281 7.042969 -12.988281 Z M 7.042969 -12.988281 "/></g></g></g><g fill="#083269" fill-opacity="1"><g transform="translate(114.665077, 256.675514)"><g><path d="M 11.050781 -4.304688 C 11.652344 -4.882812 11.953125 -5.710938 11.953125 -6.78125 C 11.953125 -7.855469 11.652344 -8.683594 11.050781 -9.269531 C 10.449219 -9.855469 9.757812 -10.148438 8.976562 -10.148438 C 8.199219 -10.148438 7.507812 -9.859375 6.90625 -9.285156 C 6.300781 -8.707031 6 -7.878906 6 -6.808594 C 6 -5.734375 6.300781 -4.902344 6.90625 -4.316406 C 7.507812 -3.734375 8.199219 -3.441406 8.976562 -3.441406 C 9.757812 -3.441406 10.449219 -3.730469 11.050781 -4.304688 Z M 6 -11.832031 C 6.929688 -13.117188 8.257812 -13.761719 9.992188 -13.761719 C 11.722656 -13.761719 13.191406 -13.105469 14.394531 -11.796875 C 15.597656 -10.488281 16.199219 -8.816406 16.199219 -6.78125 C 16.199219 -4.75 15.597656 -3.082031 14.394531 -1.78125 C 13.191406 -0.480469 11.734375 0.171875 10.027344 0.171875 C 8.320312 0.171875 6.976562 -0.542969 6 -1.976562 L 6 0 L 1.828125 0 L 1.828125 -18.054688 L 6 -18.054688 Z M 6 -11.832031 "/></g></g></g><g fill="#083269" fill-opacity="1"><g transform="translate(143.887941, 256.675514)"><g><path d="M 6 -13.613281 L 6 -11.078125 C 6.976562 -12.867188 8.277344 -13.761719 9.90625 -13.761719 L 9.90625 -9.515625 L 8.878906 -9.515625 C 7.921875 -9.515625 7.203125 -9.289062 6.722656 -8.832031 C 6.242188 -8.375 6 -7.578125 6 -6.441406 L 6 0 L 1.828125 0 L 1.828125 -13.613281 Z M 6 -13.613281 "/></g></g></g><g fill="#083269" fill-opacity="1"><g transform="translate(166.428876, 256.675514)"><g><path d="M 5.636719 -15.152344 C 5.164062 -14.679688 4.585938 -14.441406 3.902344 -14.441406 C 3.21875 -14.441406 2.644531 -14.679688 2.171875 -15.152344 C 1.699219 -15.621094 1.464844 -16.203125 1.464844 -16.894531 C 1.464844 -17.585938 1.699219 -18.167969 2.171875 -18.640625 C 2.644531 -19.113281 3.21875 -19.347656 3.902344 -19.347656 C 4.585938 -19.347656 5.164062 -19.113281 5.636719 -18.640625 C 6.109375 -18.167969 6.34375 -17.585938 6.34375 -16.894531 C 6.34375 -16.203125 6.109375 -15.621094 5.636719 -15.152344 Z M 1.828125 0 L 1.828125 -13.613281 L 6 -13.613281 L 6 0 Z M 1.828125 0 "/></g></g></g><g fill="#083269" fill-opacity="1"><g transform="translate(186.457981, 256.675514)"><g><path d="M 10.125 -4.316406 C 10.726562 -4.902344 11.027344 -5.734375 11.027344 -6.808594 C 11.027344 -7.878906 10.726562 -8.707031 10.125 -9.285156 C 9.523438 -9.859375 8.832031 -10.148438 8.050781 -10.148438 C 7.269531 -10.148438 6.578125 -9.855469 5.976562 -9.269531 C 5.375 -8.683594 5.074219 -7.855469 5.074219 -6.78125 C 5.074219 -5.710938 5.375 -4.882812 5.976562 -4.304688 C 6.578125 -3.730469 7.269531 -3.441406 8.050781 -3.441406 C 8.832031 -3.441406 9.523438 -3.734375 10.125 -4.316406 Z M 2.636719 -1.78125 C 1.429688 -3.082031 0.828125 -4.75 0.828125 -6.78125 C 0.828125 -8.816406 1.429688 -10.488281 2.636719 -11.796875 C 3.839844 -13.105469 5.304688 -13.761719 7.039062 -13.761719 C 8.769531 -13.761719 10.101562 -13.117188 11.027344 -11.832031 L 11.027344 -18.054688 L 15.199219 -18.054688 L 15.199219 0 L 11.027344 0 L 11.027344 -1.976562 C 10.019531 -0.542969 8.667969 0.171875 6.976562 0.171875 C 5.285156 0.171875 3.839844 -0.480469 2.636719 -1.78125 Z M 2.636719 -1.78125 "/></g></g></g><g fill="#083269" fill-opacity="1"><g transform="translate(215.680844, 256.675514)"><g><path d="M 2.636719 -1.78125 C 1.429688 -3.082031 0.828125 -4.75 0.828125 -6.78125 C 0.828125 -8.816406 1.429688 -10.488281 2.636719 -11.796875 C 3.839844 -13.105469 5.304688 -13.761719 7.039062 -13.761719 C 8.769531 -13.761719 10.101562 -13.117188 11.027344 -11.832031 L 11.027344 -13.613281 L 15.199219 -13.613281 L 15.199219 -0.0742188 C 15.199219 1.828125 14.679688 3.414062 13.636719 4.683594 C 13.117188 5.335938 12.40625 5.839844 11.503906 6.195312 C 10.601562 6.554688 9.554688 6.734375 8.367188 6.734375 C 6.285156 6.734375 4.636719 6.3125 3.414062 5.464844 C 2.195312 4.621094 1.503906 3.328125 1.34375 1.585938 L 5.441406 1.585938 C 5.832031 2.609375 6.808594 3.121094 8.367188 3.121094 C 9.132812 3.121094 9.765625 2.867188 10.269531 2.355469 C 10.777344 1.84375 11.027344 1.03125 11.027344 -0.0742188 L 11.027344 -1.976562 C 10.019531 -0.542969 8.667969 0.171875 6.976562 0.171875 C 5.285156 0.171875 3.839844 -0.480469 2.636719 -1.78125 Z M 10.125 -4.316406 C 10.726562 -4.902344 11.027344 -5.734375 11.027344 -6.808594 C 11.027344 -7.878906 10.726562 -8.707031 10.125 -9.285156 C 9.523438 -9.859375 8.832031 -10.148438 8.050781 -10.148438 C 7.269531 -10.148438 6.578125 -9.855469 5.976562 -9.269531 C 5.375 -8.683594 5.074219 -7.855469 5.074219 -6.78125 C 5.074219 -5.710938 5.375 -4.882812 5.976562 -4.304688 C 6.578125 -3.730469 7.269531 -3.441406 8.050781 -3.441406 C 8.832031 -3.441406 9.523438 -3.734375 10.125 -4.316406 Z M 10.125 -4.316406 "/></g></g></g><g fill="#083269" fill-opacity="1"><g transform="translate(244.903708, 256.675514)"><g><path d="M 7.613281 0.171875 C 5.628906 0.171875 4 -0.46875 2.734375 -1.746094 C 1.464844 -3.019531 0.828125 -4.71875 0.828125 -6.832031 C 0.828125 -8.945312 1.460938 -10.628906 2.71875 -11.882812 C 3.980469 -13.132812 5.613281 -13.761719 7.613281 -13.761719 C 9.613281 -13.761719 11.273438 -13.140625 12.589844 -11.90625 C 13.90625 -10.667969 14.566406 -8.953125 14.566406 -6.757812 C 14.566406 -6.285156 14.53125 -5.847656 14.46875 -5.441406 L 5.097656 -5.441406 C 5.179688 -4.839844 5.449219 -4.347656 5.902344 -3.964844 C 6.359375 -3.582031 6.851562 -3.390625 7.378906 -3.390625 C 7.910156 -3.390625 8.304688 -3.445312 8.5625 -3.550781 C 8.824219 -3.65625 9.015625 -3.761719 9.136719 -3.867188 C 9.257812 -3.972656 9.417969 -4.148438 9.613281 -4.390625 L 14.125 -4.390625 C 13.734375 -3.023438 12.953125 -1.921875 11.785156 -1.085938 C 10.613281 -0.246094 9.222656 0.171875 7.613281 0.171875 Z M 10.222656 -8.050781 C 10.15625 -8.683594 9.882812 -9.203125 9.394531 -9.601562 C 8.90625 -10 8.328125 -10.199219 7.660156 -10.199219 C 6.992188 -10.199219 6.433594 -10 5.976562 -9.601562 C 5.523438 -9.203125 5.238281 -8.683594 5.125 -8.050781 Z M 10.222656 -8.050781 "/></g></g></g></svg>